<?xml version="1.0" encoding="utf-8"?>
<!-- Generator: Adobe Illustrator 15.0.2, SVG Export Plug-In . SVG Version: 6.00 Build 0)  -->
<!DOCTYPE svg PUBLIC "-//W3C//DTD SVG 1.1//EN" "http://www.w3.org/Graphics/SVG/1.1/DTD/svg11.dtd">
<svg version="1.1" id="Layer_1" xmlns="http://www.w3.org/2000/svg" xmlns:xlink="http://www.w3.org/1999/xlink" x="0px" y="0px"
	 width="108px" height="40.4px" viewBox="54.7 111.3 108 40.4" style="enable-background:new 54.7 111.3 108 40.4;"
	 xml:space="preserve">
<g>
	<path d="M67.8,141.3v-1.4c1.8-0.2,2-0.6,2-3.1v-9.3c0-2.6-0.1-3-2.2-3h-4.5v12.4c0,2.4,0.5,2.7,2.5,3v1.4H55.2v-1.4
		c2.3-0.2,2.6-0.6,2.6-3v-12.4h-2.9l-0.2-0.6l1.3-1.5h1.8v-0.9c0-1.5,0.4-2.7,1-4c0.7-1.4,1.8-2.6,3.3-3.7c2-1.5,4.3-2.4,6.3-2.5
		c2.5,0.1,4.1,1.1,5,2c0.6,0.8,0.7,1.6,0.4,2.3c-0.2,0.5-0.7,1.1-1.3,1.4c-0.8,0.5-1.4,0.4-1.8-0.1c-0.7-0.9-2.2-3.4-4.7-3.4
		c-1.1,0-2,1-2.3,2.5c-0.3,1.1-0.4,3.2-0.4,5.1v1.3h4.3c1.9,0,5.5-0.1,7.9-0.5v14.8c0,2.5,0.2,2.8,2.6,3.1v1.4L67.8,141.3
		L67.8,141.3z"/>
	<path d="M98.4,122.9c-0.3,0.7-1.1,2.1-1.8,2.6l-2.4-0.2c0.7,0.8,1.1,1.8,1.1,3.2c0,4.4-4,6.7-8.1,6.7c-0.8,0-1.4-0.1-2.1-0.2
		c-0.3,0.3-0.6,0.7-0.6,1.2c0,0.7,0.7,1.7,2.7,1.6c1.4,0,2.6-0.1,3.9-0.1c2.6,0,6.5,0.7,6.5,5.2c0,4.8-5.7,8.7-11.4,8.7
		c-5.5-0.1-8-2.8-8-5.2c0-0.9,0.5-1.6,1.3-2.3c1-0.8,2.1-1.4,3.2-2.1c-1.8-0.6-2.6-1.4-3.2-2.3c-0.5-0.7-0.7-1.7-0.6-2.3
		c2.2-0.9,3.5-2,4.3-2.8c-2.6-0.8-4.2-3-4.2-5.7c0-4.8,4.4-7,8.2-7c1.8,0,3,0.3,4.6,1.1c2.2-0.1,4.5-0.4,6.2-0.5L98.4,122.9z
		 M84,143.1c-0.6,0.6-1,1.3-1,2.2c0,2,2.1,4.1,5.5,4.1c3.2,0,5.2-1.8,5.2-4c0-1.5-1.1-2.4-2.4-2.8c-1.1-0.3-2.1-0.4-3.7-0.4
		C85.5,142.1,84.6,142.4,84,143.1z M84.7,128.2c0,3,1,5.4,2.9,5.4c1.7,0,2.6-1.7,2.6-4.8c0-2.8-0.9-5.2-2.9-5.2
		C86,123.5,84.7,125.1,84.7,128.2z"/>
	<path d="M108.7,141.3c-0.8,0.3-1.4,0.5-1.8,0.5c-3.3,0-5.2-1.5-5.2-5.4v-11.9h-2.7l-0.2-0.5l1.2-1.5h1.7v-3.1l4.8-3.3l0.6,0.3v6.2
		h4.2c0.5,0.5,0.4,1.7-0.3,2.1h-3.9V135c0,3.3,1.5,3.7,2.4,3.7c0.7,0,1.4-0.2,2.1-0.5l0.4,1.5L108.7,141.3z"/>
	<path d="M120.9,126.4c1.5-2.6,3.2-4.5,4.8-4.5c1.7,0,2.8,1.2,2.8,2.6c0,1.5-0.9,2.7-2.1,3.1c-0.6,0.2-1,0.1-1.3-0.2
		c-0.7-0.6-1.2-0.9-2-0.9c-0.8,0-1.6,0.6-2.4,2.2v7.9c0,2.6,0.3,2.8,3.5,3.1v1.4h-11.7v-1.4c2.3-0.3,2.7-0.5,2.7-3.1v-9.3
		c0-2.2-0.3-2.3-2.3-2.8v-1.2c2.6-0.4,5.1-0.8,7.7-1.6v4.5H120.9z"/>
	<path d="M145.5,137c-2.6,3.9-5.9,4.7-7.7,4.7c-5.7,0-8.8-4.2-8.8-9.1c0-3.2,1.4-6,3.1-7.7c1.9-1.9,4.2-3,6.6-3
		c3.9,0,6.9,3.4,6.9,6.9c0,0.8-0.3,1.4-1.2,1.5c-0.8,0.1-6,0.5-10.1,0.7c0.2,4.6,2.7,6.9,5.8,6.9c1.6,0,3.2-0.6,4.7-1.8L145.5,137z
		 M134.5,129c1.8-0.1,3.3-0.1,5.1-0.1c0.6,0,0.8-0.1,0.9-0.8c0-2.2-0.9-4.4-2.6-4.4C136.2,123.6,134.7,125.6,134.5,129z"/>
	<path d="M162.6,137c-2.6,3.9-5.9,4.7-7.7,4.7c-5.7,0-8.8-4.2-8.8-9.1c0-3.2,1.4-6,3.1-7.7c1.9-1.9,4.2-3,6.5-3
		c3.9,0,6.9,3.4,6.9,6.9c0,0.8-0.3,1.4-1.2,1.5c-0.8,0.1-6,0.5-10.1,0.7c0.2,4.6,2.7,6.9,5.7,6.9c1.7,0,3.2-0.6,4.7-1.8L162.6,137z
		 M151.6,129c1.8-0.1,3.3-0.1,5.1-0.1c0.6,0,0.8-0.1,0.9-0.8c0-2.2-0.9-4.4-2.6-4.4C153.3,123.6,151.8,125.6,151.6,129z"/>
</g>
</svg>
