<?xml version="1.0" encoding="utf-8"?>
<!-- Generator: Adobe Illustrator 15.0.2, SVG Export Plug-In . SVG Version: 6.00 Build 0)  -->
<!DOCTYPE svg PUBLIC "-//W3C//DTD SVG 1.1//EN" "http://www.w3.org/Graphics/SVG/1.1/DTD/svg11.dtd">
<svg version="1.1" id="Layer_1" xmlns="http://www.w3.org/2000/svg" xmlns:xlink="http://www.w3.org/1999/xlink" x="0px" y="0px"
	 width="253.2px" height="47.1px" viewBox="0 3 253.2 47.1" style="enable-background:new 0 3 253.2 47.1;" xml:space="preserve">
<g>
	<g>
		<path d="M13.4,33.2v-1.4c1.9-0.2,2.1-0.6,2.1-3.1v-9.4c0-2.6-0.1-3-2.2-3H8.7v12.5c0,2.4,0.5,2.7,2.5,3v1.4H0.6v-1.4
			c2.3-0.2,2.6-0.6,2.6-3V16.3h-3L0,15.7l1.3-1.6h1.8v-0.9c0-1.5,0.4-2.7,1-4c0.7-1.4,1.8-2.6,3.4-3.7c2-1.6,4.4-2.4,6.4-2.5
			c2.5,0.1,4.1,1.1,5,2c0.6,0.8,0.7,1.7,0.4,2.4c-0.2,0.5-0.7,1.1-1.3,1.4c-0.8,0.5-1.4,0.4-1.8-0.1c-0.7-0.9-2.2-3.4-4.8-3.4
			c-1.2,0-2,1-2.3,2.5C8.8,9,8.7,11,8.7,12.9v1.3H13c1.9,0,5.6-0.1,8-0.5v15c0,2.5,0.2,2.8,2.6,3.1v1.4H13.4L13.4,33.2z"/>
		<path d="M44.2,14.6c-0.3,0.7-1.1,2.1-1.9,2.6L39.9,17c0.7,0.8,1.2,1.8,1.2,3.3c0,4.5-4,6.7-8.2,6.7c-0.8,0-1.4-0.1-2.1-0.2
			c-0.3,0.3-0.6,0.7-0.6,1.2c0,0.7,0.7,1.7,2.7,1.6c1.4,0,2.6-0.1,3.9-0.1c2.7,0,6.6,0.7,6.6,5.2c0,4.9-5.7,8.8-11.5,8.8
			c-5.5-0.1-8-2.9-8-5.3c0-0.9,0.5-1.6,1.3-2.4c1-0.8,2.1-1.4,3.3-2.1c-1.8-0.6-2.6-1.4-3.2-2.4c-0.5-0.7-0.7-1.7-0.6-2.3
			c2.2-0.9,3.6-2.1,4.4-2.8c-2.6-0.9-4.2-3.1-4.2-5.7c0-4.8,4.5-7,8.3-7c1.8,0,3,0.3,4.6,1.2c2.2-0.1,4.5-0.3,6.2-0.5L44.2,14.6z
			 M29.6,35c-0.6,0.6-1,1.3-1,2.2c0,2.1,2.1,4.1,5.5,4.1c3.3,0,5.2-1.8,5.2-4c0-1.6-1.1-2.4-2.4-2.8c-1.2-0.3-2.1-0.4-3.7-0.4
			C31.2,34.1,30.3,34.3,29.6,35z M30.4,20c0,3,1,5.4,3,5.4c1.7,0,2.6-1.7,2.6-4.9c0-2.8-0.9-5.3-3-5.3C31.6,15.3,30.4,16.9,30.4,20z
			"/>
		<path d="M54.6,33.2c-0.8,0.3-1.4,0.5-1.8,0.5c-3.3,0-5.2-1.6-5.2-5.4v-12h-2.7l-0.2-0.5l1.2-1.6h1.7v-3.1l4.9-3.4L53.1,8v6.2h4.2
			c0.5,0.5,0.4,1.7-0.3,2.1h-3.9v10.6c0,3.4,1.6,3.7,2.4,3.7c0.7,0,1.4-0.2,2.1-0.5l0.4,1.5L54.6,33.2z"/>
		<path d="M66.9,18.2c1.6-2.7,3.2-4.5,4.8-4.5c1.7,0,2.9,1.2,2.9,2.7c0,1.6-0.9,2.7-2.1,3.2c-0.6,0.2-1,0.1-1.3-0.2
			c-0.7-0.6-1.2-0.9-2-0.9s-1.7,0.6-2.4,2.2v8c0,2.7,0.3,2.8,3.6,3.1v1.4H58.6v-1.4c2.3-0.3,2.7-0.5,2.7-3.1v-9.3
			c0-2.2-0.3-2.4-2.3-2.8v-1.2c2.6-0.3,5.1-0.8,7.8-1.6v4.6h0.1V18.2z"/>
		<path d="M91.7,28.9c-2.6,3.9-6,4.8-7.7,4.8c-5.7,0-8.9-4.2-8.9-9.2c0-3.3,1.4-6,3.2-7.8c1.9-1.9,4.2-3.1,6.6-3.1
			c3.9,0,7,3.4,6.9,6.9c0,0.9-0.3,1.4-1.2,1.6c-0.8,0.1-6,0.5-10.2,0.7c0.2,4.6,2.7,6.9,5.8,6.9c1.7,0,3.3-0.6,4.8-1.9L91.7,28.9z
			 M80.6,20.8c1.8-0.1,3.4-0.1,5.1-0.1c0.6-0.1,0.9-0.1,0.9-0.9c0-2.2-0.9-4.4-2.6-4.4S80.8,17.4,80.6,20.8z"/>
		<path d="M108.9,28.9c-2.6,3.9-6,4.8-7.7,4.8c-5.7,0-8.9-4.2-8.9-9.2c0-3.3,1.4-6,3.2-7.8c1.9-1.9,4.2-3.1,6.6-3.1
			c3.9,0,7,3.4,6.9,6.9c0,0.9-0.3,1.4-1.2,1.6c-0.8,0.1-6,0.5-10.2,0.7c0.2,4.6,2.7,6.9,5.8,6.9c1.7,0,3.3-0.6,4.8-1.9L108.9,28.9z
			 M97.8,20.8c1.8-0.1,3.4-0.1,5.1-0.1c0.6-0.1,0.9-0.1,0.9-0.9c0-2.2-0.9-4.4-2.6-4.4C99.6,15.4,98.1,17.4,97.8,20.8z"/>
	</g>
	<rect x="126.5" y="2.5" transform="matrix(-0.7083 -0.7059 0.7059 -0.7083 202.2433 124.5957)" width="0.8" height="36"/>
	<g>
		<path d="M150.2,25.2V13.9h2.4c1.1,0,2,0.1,2.7,0.3c0.7,0.2,1.3,0.6,1.9,1.1c1.2,1.1,1.8,2.5,1.8,4.2c0,1.7-0.6,3.1-1.8,4.2
			c-0.6,0.5-1.2,0.9-1.9,1.1c-0.6,0.2-1.5,0.3-2.7,0.3H150.2z M152,23.6h0.8c0.8,0,1.4-0.1,1.9-0.2c0.5-0.2,1-0.4,1.4-0.8
			c0.8-0.8,1.3-1.8,1.3-3c0-1.2-0.4-2.2-1.2-3c-0.7-0.7-1.8-1-3.3-1H152V23.6z"/>
		<path d="M160.6,15.1c0-0.3,0.1-0.5,0.3-0.7s0.5-0.3,0.8-0.3c0.3,0,0.6,0.1,0.8,0.3c0.2,0.2,0.3,0.5,0.3,0.8s-0.1,0.6-0.3,0.8
			c-0.2,0.2-0.5,0.3-0.8,0.3s-0.6-0.1-0.8-0.3S160.6,15.4,160.6,15.1z M162.5,18.1v7.1h-1.6v-7.1H162.5z"/>
		<path d="M171.5,25.1c0,0.3,0,0.6,0,0.9c0,0.3-0.1,0.5-0.1,0.7c-0.1,0.5-0.3,1-0.7,1.4c-0.6,0.7-1.5,1.1-2.7,1.1
			c-1,0-1.7-0.3-2.4-0.8c-0.6-0.5-1-1.3-1.1-2.2h1.7c0.1,0.4,0.2,0.6,0.3,0.8c0.3,0.4,0.8,0.7,1.5,0.7c1.2,0,1.8-0.7,1.8-2.2v-1
			c-0.7,0.7-1.4,1-2.3,1c-1,0-1.8-0.4-2.4-1.1c-0.6-0.7-0.9-1.6-0.9-2.7c0-1,0.3-1.9,0.9-2.7c0.6-0.8,1.5-1.2,2.5-1.2
			c0.9,0,1.6,0.3,2.2,1v-0.8h1.6V25.1z M169.9,21.7c0-0.7-0.2-1.2-0.6-1.7c-0.4-0.4-0.9-0.6-1.4-0.6c-0.6,0-1.1,0.2-1.5,0.7
			c-0.3,0.4-0.5,1-0.5,1.6c0,0.6,0.2,1.2,0.5,1.6c0.4,0.5,0.8,0.7,1.5,0.7c0.6,0,1.1-0.2,1.5-0.7C169.7,22.9,169.9,22.3,169.9,21.7z
			"/>
		<path d="M173.3,15.1c0-0.3,0.1-0.5,0.3-0.7s0.5-0.3,0.8-0.3c0.3,0,0.6,0.1,0.8,0.3c0.2,0.2,0.3,0.5,0.3,0.8s-0.1,0.6-0.3,0.8
			c-0.2,0.2-0.5,0.3-0.8,0.3s-0.6-0.1-0.8-0.3S173.3,15.4,173.3,15.1z M175.2,18.1v7.1h-1.6v-7.1H175.2z"/>
		<path d="M179,19.6v5.6h-1.6v-5.6h-0.7v-1.5h0.7v-2.6h1.6v2.6h1.3v1.5H179z"/>
		<path d="M186.8,18.1h1.7v7.1h-1.7v-0.7c-0.7,0.6-1.4,1-2.2,1c-1,0-1.8-0.4-2.4-1.1c-0.6-0.7-1-1.6-1-2.7c0-1.1,0.3-2,1-2.7
			s1.4-1.1,2.4-1.1c0.8,0,1.6,0.3,2.2,1V18.1z M182.9,21.7c0,0.7,0.2,1.2,0.5,1.7c0.4,0.4,0.8,0.7,1.4,0.7c0.6,0,1.1-0.2,1.5-0.6
			c0.4-0.4,0.6-1,0.6-1.7c0-0.7-0.2-1.2-0.6-1.7c-0.4-0.4-0.9-0.6-1.5-0.6c-0.6,0-1,0.2-1.4,0.6C183,20.5,182.9,21,182.9,21.7z"/>
		<path d="M192.1,12.9v12.4h-1.6V12.9H192.1z"/>
		<path d="M199.2,25.2V13.9h2.4c1.1,0,2,0.1,2.7,0.3c0.7,0.2,1.3,0.6,1.9,1.1c1.2,1.1,1.8,2.5,1.8,4.2c0,1.7-0.6,3.1-1.8,4.2
			c-0.6,0.5-1.2,0.9-1.9,1.1c-0.6,0.2-1.5,0.3-2.7,0.3H199.2z M200.9,23.6h0.8c0.8,0,1.4-0.1,1.9-0.2c0.5-0.2,1-0.4,1.4-0.8
			c0.8-0.8,1.3-1.8,1.3-3c0-1.2-0.4-2.2-1.2-3c-0.7-0.7-1.8-1-3.3-1h-0.8V23.6z"/>
		<path d="M216.3,22.1h-5.1c0,0.6,0.2,1.1,0.6,1.4c0.3,0.3,0.8,0.5,1.3,0.5c0.4,0,0.7-0.1,1-0.3c0.3-0.2,0.6-0.6,0.9-1.1l1.4,0.8
			c-0.2,0.4-0.4,0.7-0.7,0.9c-0.2,0.3-0.5,0.5-0.8,0.6c-0.3,0.2-0.6,0.3-0.9,0.4s-0.7,0.1-1,0.1c-1.1,0-1.9-0.3-2.6-1
			c-0.6-0.7-1-1.6-1-2.7c0-1.1,0.3-2,0.9-2.7c0.6-0.7,1.5-1,2.5-1c1,0,1.9,0.3,2.5,1c0.6,0.7,0.9,1.6,0.9,2.8L216.3,22.1z
			 M214.6,20.7c-0.2-0.9-0.8-1.3-1.7-1.3c-0.2,0-0.4,0-0.6,0.1s-0.3,0.1-0.5,0.3c-0.1,0.1-0.3,0.3-0.4,0.4s-0.2,0.3-0.2,0.5H214.6z"
			/>
		<path d="M222.2,19.3l-1.4,0.7c-0.2-0.4-0.5-0.7-0.8-0.7c-0.2,0-0.3,0-0.4,0.1s-0.2,0.2-0.2,0.4c0,0.3,0.3,0.5,1,0.8
			c0.9,0.4,1.5,0.7,1.8,1c0.3,0.3,0.5,0.7,0.5,1.3c0,0.7-0.3,1.3-0.8,1.7c-0.5,0.4-1.1,0.7-1.8,0.7c-1.2,0-2-0.6-2.5-1.8L219,23
			c0.2,0.3,0.3,0.6,0.4,0.7c0.2,0.2,0.4,0.3,0.7,0.3c0.6,0,0.8-0.3,0.8-0.8c0-0.3-0.2-0.6-0.6-0.8c-0.2-0.1-0.3-0.2-0.5-0.2
			c-0.2-0.1-0.3-0.2-0.5-0.2c-0.5-0.2-0.8-0.5-1-0.7c-0.2-0.3-0.4-0.7-0.4-1.1c0-0.6,0.2-1.1,0.6-1.5c0.4-0.4,1-0.6,1.6-0.6
			C221.1,17.9,221.8,18.4,222.2,19.3z"/>
		<path d="M223.9,15.1c0-0.3,0.1-0.5,0.3-0.7s0.5-0.3,0.8-0.3c0.3,0,0.6,0.1,0.8,0.3c0.2,0.2,0.3,0.5,0.3,0.8s-0.1,0.6-0.3,0.8
			c-0.2,0.2-0.5,0.3-0.8,0.3s-0.6-0.1-0.8-0.3S223.9,15.4,223.9,15.1z M225.8,18.1v7.1h-1.6v-7.1H225.8z"/>
		<path d="M234.8,25.1c0,0.3,0,0.6,0,0.9c0,0.3-0.1,0.5-0.1,0.7c-0.1,0.5-0.3,1-0.7,1.4c-0.6,0.7-1.5,1.1-2.7,1.1
			c-1,0-1.7-0.3-2.4-0.8c-0.6-0.5-1-1.3-1.1-2.2h1.7c0.1,0.4,0.2,0.6,0.3,0.8c0.3,0.4,0.8,0.7,1.5,0.7c1.2,0,1.8-0.7,1.8-2.2v-1
			c-0.7,0.7-1.4,1-2.3,1c-1,0-1.8-0.4-2.4-1.1c-0.6-0.7-0.9-1.6-0.9-2.7c0-1,0.3-1.9,0.9-2.7c0.6-0.8,1.5-1.2,2.5-1.2
			c0.9,0,1.6,0.3,2.2,1v-0.8h1.6V25.1z M233.2,21.7c0-0.7-0.2-1.2-0.6-1.7c-0.4-0.4-0.9-0.6-1.4-0.6c-0.6,0-1.1,0.2-1.5,0.7
			c-0.3,0.4-0.5,1-0.5,1.6c0,0.6,0.2,1.2,0.5,1.6c0.4,0.5,0.8,0.7,1.5,0.7c0.6,0,1.1-0.2,1.5-0.7C233,22.9,233.2,22.3,233.2,21.7z"
			/>
		<path d="M236.9,18.1h1.7v0.7c0.6-0.6,1.2-0.9,1.9-0.9c0.8,0,1.5,0.3,1.9,0.8c0.4,0.4,0.6,1.2,0.6,2.2v4.4h-1.7v-4
			c0-0.7-0.1-1.2-0.3-1.5c-0.2-0.3-0.5-0.4-1-0.4c-0.5,0-0.9,0.2-1.2,0.5c-0.2,0.4-0.3,1-0.3,1.9v3.4h-1.7V18.1z"/>
		<path d="M154.7,40l2,2.5l0.1-0.1c0.2-0.2,0.4-0.5,0.6-0.7c0.2-0.2,0.4-0.5,0.6-0.7l1.1,1.1c-0.1,0.2-0.3,0.4-0.5,0.7
			c-0.2,0.3-0.5,0.6-0.8,0.9l2.1,2.6h-2.1l-1.1-1.4c-1,1.1-2.1,1.6-3.2,1.6c-1,0-1.9-0.3-2.5-1c-0.7-0.6-1-1.4-1-2.4
			c0-1.1,0.5-2.1,1.6-2.8l0.7-0.5c0,0,0,0,0.1,0s0.1,0,0.1-0.1c-0.7-0.8-1.1-1.6-1.1-2.4c0-0.8,0.2-1.4,0.7-1.9
			c0.5-0.5,1.2-0.7,2-0.7c0.8,0,1.4,0.2,1.9,0.7s0.8,1,0.8,1.8c0,0.5-0.1,0.9-0.4,1.3C155.9,38.9,155.4,39.4,154.7,40z M153.3,40.9
			L153.3,40.9c-0.8,0.5-1.3,0.9-1.5,1.2c-0.2,0.3-0.4,0.6-0.4,0.9c0,0.5,0.2,0.9,0.6,1.3c0.4,0.4,0.8,0.6,1.3,0.6
			c0.7,0,1.4-0.4,2.3-1.3L153.3,40.9z M153.7,38.8l0.1-0.1c0.2-0.2,0.4-0.3,0.6-0.5c0.2-0.1,0.3-0.2,0.3-0.3
			c0.1-0.2,0.2-0.4,0.2-0.7c0-0.3-0.1-0.5-0.3-0.7s-0.5-0.3-0.8-0.3c-0.3,0-0.6,0.1-0.8,0.3c-0.2,0.2-0.3,0.4-0.3,0.7
			c0,0.3,0.1,0.7,0.4,1l0.4,0.5C153.6,38.7,153.7,38.7,153.7,38.8z"/>
		<path d="M165.8,46.2V34.9h2.4c1.1,0,2,0.1,2.7,0.3c0.7,0.2,1.3,0.6,1.9,1.1c1.2,1.1,1.8,2.5,1.8,4.2c0,1.7-0.6,3.1-1.8,4.2
			c-0.6,0.5-1.2,0.9-1.9,1.1c-0.6,0.2-1.5,0.3-2.7,0.3H165.8z M167.5,44.6h0.8c0.8,0,1.4-0.1,1.9-0.2c0.5-0.2,1-0.4,1.4-0.8
			c0.8-0.8,1.3-1.8,1.3-3c0-1.2-0.4-2.2-1.2-3c-0.7-0.7-1.8-1-3.3-1h-0.8V44.6z"/>
		<path d="M182.9,43.1h-5.1c0,0.6,0.2,1.1,0.6,1.4c0.3,0.3,0.8,0.5,1.3,0.5c0.4,0,0.7-0.1,1-0.3c0.3-0.2,0.6-0.6,0.9-1.1l1.4,0.8
			c-0.2,0.4-0.4,0.7-0.7,0.9c-0.2,0.3-0.5,0.5-0.8,0.6c-0.3,0.2-0.6,0.3-0.9,0.4s-0.7,0.1-1,0.1c-1.1,0-1.9-0.3-2.6-1
			c-0.6-0.7-1-1.6-1-2.7c0-1.1,0.3-2,0.9-2.7c0.6-0.7,1.5-1,2.5-1c1,0,1.9,0.3,2.5,1c0.6,0.7,0.9,1.6,0.9,2.8L182.9,43.1z
			 M181.2,41.7c-0.2-0.9-0.8-1.3-1.7-1.3c-0.2,0-0.4,0-0.6,0.1s-0.3,0.1-0.5,0.3c-0.1,0.1-0.3,0.3-0.4,0.4c-0.1,0.2-0.2,0.3-0.2,0.5
			H181.2z"/>
		<path d="M185.3,39.1l1.8,4l1.8-4h1.9l-3.7,7.6l-3.7-7.6H185.3z"/>
		<path d="M198.2,43.1h-5.1c0,0.6,0.2,1.1,0.6,1.4c0.3,0.3,0.8,0.5,1.3,0.5c0.4,0,0.7-0.1,1-0.3c0.3-0.2,0.6-0.6,0.9-1.1l1.4,0.8
			c-0.2,0.4-0.4,0.7-0.7,0.9c-0.2,0.3-0.5,0.5-0.8,0.6c-0.3,0.2-0.6,0.3-0.9,0.4s-0.7,0.1-1,0.1c-1.1,0-1.9-0.3-2.6-1
			c-0.6-0.7-1-1.6-1-2.7c0-1.1,0.3-2,0.9-2.7c0.6-0.7,1.5-1,2.5-1c1,0,1.9,0.3,2.5,1c0.6,0.7,0.9,1.6,0.9,2.8L198.2,43.1z
			 M196.5,41.7c-0.2-0.9-0.8-1.3-1.7-1.3c-0.2,0-0.4,0-0.6,0.1s-0.3,0.1-0.5,0.3c-0.1,0.1-0.3,0.3-0.4,0.4c-0.1,0.2-0.2,0.3-0.2,0.5
			H196.5z"/>
		<path d="M201.7,33.9v12.4H200V33.9H201.7z"/>
		<path d="M203.4,42.6c0-1,0.4-1.9,1.1-2.6s1.6-1.1,2.7-1.1c1.1,0,2,0.4,2.7,1.1c0.7,0.7,1.1,1.6,1.1,2.7c0,1.1-0.4,2-1.1,2.7
			c-0.7,0.7-1.7,1.1-2.7,1.1c-1.1,0-2-0.4-2.7-1.1C203.8,44.6,203.4,43.7,203.4,42.6z M205.1,42.7c0,0.7,0.2,1.3,0.6,1.7
			c0.4,0.4,0.9,0.6,1.5,0.6c0.6,0,1.2-0.2,1.5-0.6s0.6-1,0.6-1.7s-0.2-1.2-0.6-1.7c-0.4-0.4-0.9-0.6-1.5-0.6c-0.6,0-1.1,0.2-1.5,0.6
			S205.1,42,205.1,42.7z"/>
		<path d="M214.4,50.1h-1.6v-11h1.6v0.8c0.6-0.6,1.4-1,2.2-1c1,0,1.8,0.4,2.4,1.1c0.6,0.7,1,1.6,1,2.7c0,1.1-0.3,2-1,2.7
			c-0.6,0.7-1.4,1.1-2.4,1.1c-0.8,0-1.6-0.3-2.2-1V50.1z M218.4,42.7c0-0.7-0.2-1.2-0.6-1.7c-0.4-0.4-0.8-0.7-1.4-0.7
			c-0.6,0-1.1,0.2-1.5,0.6s-0.6,1-0.6,1.7c0,0.7,0.2,1.2,0.6,1.7c0.4,0.4,0.9,0.6,1.5,0.6c0.6,0,1-0.2,1.4-0.6
			C218.2,43.9,218.4,43.4,218.4,42.7z"/>
		<path d="M221.8,39.1h1.6v0.7c0.3-0.3,0.6-0.6,0.8-0.7c0.2-0.1,0.5-0.2,0.9-0.2c0.8,0,1.4,0.4,1.9,1.1c0.5-0.7,1.2-1.1,2.1-1.1
			c1.6,0,2.4,1,2.4,2.9v4.4h-1.7v-4c0-0.7-0.1-1.2-0.2-1.4c-0.2-0.3-0.5-0.4-0.8-0.4c-0.5,0-0.8,0.2-1,0.5c-0.2,0.3-0.3,0.9-0.3,1.6
			v3.7h-1.7v-3.9c0-1.3-0.4-1.9-1.1-1.9c-0.5,0-0.8,0.2-1,0.5c-0.2,0.3-0.3,0.9-0.3,1.6v3.7h-1.6V39.1z"/>
		<path d="M240.1,43.1H235c0,0.6,0.2,1.1,0.6,1.4c0.3,0.3,0.8,0.5,1.3,0.5c0.4,0,0.7-0.1,1-0.3c0.3-0.2,0.6-0.6,0.9-1.1l1.4,0.8
			c-0.2,0.4-0.4,0.7-0.7,0.9c-0.2,0.3-0.5,0.5-0.8,0.6c-0.3,0.2-0.6,0.3-0.9,0.4s-0.7,0.1-1,0.1c-1.1,0-1.9-0.3-2.6-1
			c-0.6-0.7-1-1.6-1-2.7c0-1.1,0.3-2,0.9-2.7c0.6-0.7,1.5-1,2.5-1c1,0,1.9,0.3,2.5,1c0.6,0.7,0.9,1.6,0.9,2.8L240.1,43.1z
			 M238.5,41.7c-0.2-0.9-0.8-1.3-1.7-1.3c-0.2,0-0.4,0-0.6,0.1s-0.3,0.1-0.5,0.3c-0.1,0.1-0.3,0.3-0.4,0.4c-0.1,0.2-0.2,0.3-0.2,0.5
			H238.5z"/>
		<path d="M241.9,39.1h1.7v0.7c0.6-0.6,1.2-0.9,1.9-0.9c0.8,0,1.5,0.3,1.9,0.8c0.4,0.4,0.6,1.2,0.6,2.2v4.4h-1.7v-4
			c0-0.7-0.1-1.2-0.3-1.5c-0.2-0.3-0.5-0.4-1-0.4c-0.5,0-0.9,0.2-1.2,0.5c-0.2,0.4-0.3,1-0.3,1.9v3.4h-1.7V39.1z"/>
		<path d="M251.9,40.6v5.6h-1.6v-5.6h-0.7v-1.5h0.7v-2.6h1.6v2.6h1.3v1.5H251.9z"/>
	</g>
</g>
</svg>
