<?xml version="1.0" encoding="utf-8"?>
<!-- Generator: Adobe Illustrator 15.0.2, SVG Export Plug-In . SVG Version: 6.00 Build 0)  -->
<!DOCTYPE svg PUBLIC "-//W3C//DTD SVG 1.1//EN" "http://www.w3.org/Graphics/SVG/1.1/DTD/svg11.dtd">
<svg version="1.1" id="Layer_1" xmlns="http://www.w3.org/2000/svg" xmlns:xlink="http://www.w3.org/1999/xlink" x="0px" y="0px"
	 width="432px" height="81.4px" viewBox="-1.9 70.3 432 81.4" style="enable-background:new -1.9 70.3 432 81.4;"
	 xml:space="preserve">
<g>
	<g>
		<path d="M24.6,130.7v-2.8c3.7-0.4,4.1-1.1,4.1-6.2v-18.7c0-5.3-0.3-6-4.5-6h-9.1v24.9c0,4.8,1,5.5,5,6v2.8H-0.9v-2.8
			c4.6-0.4,5.3-1.2,5.3-6V96.9h-5.9l-0.3-1.1l2.6-3.1h3.6v-1.9c0-3,0.8-5.5,2-8c1.4-2.7,3.6-5.2,6.7-7.5c4-3.1,8.7-4.8,12.7-5
			c5.1,0.2,8.3,2.1,10,4c1.3,1.6,1.4,3.3,0.8,4.7c-0.4,1-1.4,2.3-2.7,2.8c-1.6,1-2.8,0.8-3.6-0.3c-1.4-1.8-4.4-6.9-9.6-6.9
			c-2.3,0-4,2-4.6,5c-0.6,2.3-0.9,6.4-0.9,10.2v2.7h8.6c3.9,0,11.2-0.1,16-1v29.9c0,5,0.4,5.7,5.2,6.2v2.8L24.6,130.7L24.6,130.7z"
			/>
		<path d="M86.3,93.6c-0.5,1.4-2.1,4.3-3.7,5.3l-4.9-0.3c1.4,1.6,2.3,3.6,2.3,6.5c0,8.9-8,13.4-16.4,13.4c-1.6,0-2.9-0.3-4.2-0.4
			c-0.7,0.7-1.2,1.4-1.2,2.4c0,1.4,1.4,3.3,5.5,3.3c2.7,0,5.2-0.1,7.9-0.1c5.3,0,13.2,1.4,13.2,10.5c0,9.8-11.5,17.6-22.9,17.6
			c-11.1-0.1-16-5.7-16-10.6c0-1.9,1-3.3,2.7-4.7c2-1.6,4.3-2.8,6.5-4.2c-3.6-1.3-5.3-2.9-6.4-4.7c-1-1.4-1.4-3.4-1.3-4.6
			c4.5-1.8,7.1-4.1,8.7-5.7c-5.2-1.7-8.4-6.1-8.4-11.4c0-9.6,8.9-14.1,16.6-14.1c3.5,0,6,0.7,9.2,2.3c4.5-0.2,9-0.7,12.4-1
			L86.3,93.6z M57.1,134.3c-1.2,1.3-2,2.6-2,4.4c0,4.1,4.3,8.3,11.1,8.3c6.5,0,10.4-3.5,10.4-8c0-3.1-2.1-4.9-4.8-5.6
			c-2.3-0.6-4.2-0.8-7.4-0.8C60.2,132.4,58.4,132.9,57.1,134.3z M58.7,104.4c0,6,2,10.8,5.9,10.8c3.3,0,5.2-3.4,5.2-9.8
			c0-5.6-1.8-10.6-5.9-10.6C61.2,94.9,58.7,98.1,58.7,104.4z"/>
		<path d="M107.1,130.7c-1.6,0.6-2.9,1-3.5,1c-6.6,0-10.5-3.1-10.5-10.8v-24h-5.4l-0.4-1l2.4-3.1h3.4v-6.2l9.7-6.7l1.2,0.5v12.5h8.4
			c1,1,0.9,3.4-0.5,4.1H104v21.2c0,6.7,3.1,7.5,4.9,7.5c1.4,0,2.8-0.3,4.3-1l0.9,3L107.1,130.7z"/>
		<path d="M131.7,100.7c3.1-5.3,6.4-9,9.6-9c3.4,0,5.7,2.4,5.7,5.3c0,3.1-1.9,5.5-4.2,6.3c-1.2,0.4-2,0.2-2.7-0.3
			c-1.4-1.2-2.5-1.8-4-1.8c-1.6,0-3.3,1.1-4.8,4.5v16c0,5.3,0.5,5.7,7.1,6.3v2.7H115v-2.7c4.6-0.5,5.5-1,5.5-6.3v-18.7
			c0-4.4-0.7-4.7-4.6-5.7v-2.4c5.2-0.7,10.2-1.6,15.6-3.3v9.1H131.7z"/>
		<path d="M181.3,122.1c-5.3,7.8-11.9,9.6-15.5,9.6c-11.4,0-17.8-8.5-17.8-18.4c0-6.5,2.7-12,6.3-15.6c3.8-3.8,8.5-6.1,13.2-6.1
			c7.9,0,14,6.8,13.9,13.8c0,1.7-0.5,2.8-2.5,3.1c-1.6,0.2-12,1-20.4,1.4c0.4,9.2,5.5,13.8,11.6,13.8c3.3,0,6.5-1.1,9.6-3.7
			L181.3,122.1z M159,105.9c3.5-0.1,6.7-0.2,10.2-0.3c1.3-0.1,1.7-0.3,1.8-1.7c0-4.4-1.9-8.9-5.3-8.9
			C162.5,95.1,159.5,99.1,159,105.9z"/>
		<path d="M215.7,122.1c-5.3,7.8-11.9,9.6-15.5,9.6c-11.4,0-17.8-8.5-17.8-18.4c0-6.5,2.7-12,6.3-15.6c3.8-3.8,8.5-6.1,13.2-6.1
			c7.9,0,14,6.8,13.9,13.8c0,1.7-0.5,2.8-2.5,3.1c-1.6,0.2-12,1-20.4,1.4c0.4,9.2,5.5,13.8,11.6,13.8c3.3,0,6.5-1.1,9.6-3.7
			L215.7,122.1z M193.5,105.9c3.5-0.1,6.7-0.2,10.2-0.3c1.3-0.1,1.7-0.3,1.8-1.7c0-4.4-1.9-8.9-5.3-8.9
			C197,95.1,194,99.1,193.5,105.9z"/>
	</g>
	<g>
		<path d="M297.6,99.9V85.3h3.1c1.4,0,2.6,0.2,3.5,0.4c0.9,0.3,1.7,0.8,2.5,1.4c1.5,1.4,2.3,3.2,2.3,5.4c0,2.3-0.8,4-2.4,5.4
			c-0.8,0.7-1.6,1.2-2.5,1.4c-0.8,0.3-1.9,0.4-3.4,0.4L297.6,99.9L297.6,99.9z M299.8,97.8h1c1,0,1.8-0.1,2.5-0.3
			c0.6-0.2,1.2-0.6,1.8-1.1c1.1-1,1.6-2.3,1.6-3.9s-0.5-2.9-1.6-3.9c-1-0.9-2.4-1.3-4.2-1.3h-1V97.8L299.8,97.8z"/>
		<path d="M310.8,86.8c0-0.4,0.2-0.7,0.4-1s0.6-0.4,1-0.4s0.7,0.2,1,0.4c0.3,0.3,0.4,0.6,0.4,1c0,0.4-0.2,0.7-0.4,1
			c-0.3,0.3-0.6,0.4-1,0.4s-0.7-0.2-1-0.4C311,87.5,310.8,87.2,310.8,86.8z M313.3,90.7v9.2h-2.1v-9.2H313.3z"/>
		<path d="M324.9,99.6c0,0.4,0,0.8-0.1,1.1c-0.1,0.3-0.1,0.6-0.1,0.9c-0.2,0.7-0.4,1.3-0.9,1.8c-0.8,1-2,1.4-3.4,1.4
			c-1.2,0-2.3-0.3-3-1c-0.8-0.7-1.3-1.6-1.4-2.8h2.1c0.1,0.4,0.2,0.8,0.4,1.1c0.4,0.6,1.1,0.9,1.9,0.9c1.6,0,2.3-1,2.3-2.8v-1.3
			c-0.9,0.9-1.8,1.3-2.9,1.3c-1.2,0-2.3-0.4-3.1-1.3c-0.8-0.9-1.2-2-1.2-3.4c0-1.3,0.4-2.5,1.1-3.4c0.8-1,1.9-1.5,3.2-1.5
			c1.2,0,2.1,0.4,2.9,1.3v-1h2.1v9L324.9,99.6L324.9,99.6z M322.8,95.3c0-0.9-0.2-1.6-0.7-2.1c-0.5-0.5-1.1-0.8-1.9-0.8
			c-0.8,0-1.4,0.3-1.9,0.9c-0.4,0.5-0.6,1.2-0.6,2.1s0.2,1.5,0.6,2c0.5,0.6,1.1,0.9,1.9,0.9s1.4-0.3,1.9-0.9
			C322.6,96.8,322.8,96.1,322.8,95.3z"/>
		<path d="M327.2,86.8c0-0.4,0.2-0.7,0.4-1s0.6-0.4,1-0.4s0.7,0.2,1,0.4c0.3,0.3,0.4,0.6,0.4,1c0,0.4-0.2,0.7-0.4,1
			c-0.3,0.3-0.6,0.4-1,0.4c-0.4,0-0.7-0.2-1-0.4C327.4,87.5,327.2,87.2,327.2,86.8z M329.7,90.7v9.2h-2.1v-9.2H329.7z"/>
		<path d="M334.5,92.7v7.2h-2.1v-7.2h-0.9v-2h0.9v-3.4h2.1v3.4h1.7v2H334.5z"/>
		<path d="M344.6,90.7h2.1v9.2h-2.1v-1c-0.9,0.8-1.8,1.2-2.8,1.2c-1.3,0-2.3-0.5-3.2-1.4c-0.8-0.9-1.2-2.1-1.2-3.5
			c0-1.4,0.4-2.5,1.2-3.4c0.8-0.9,1.9-1.4,3.1-1.4c1.1,0,2,0.4,2.9,1.3L344.6,90.7L344.6,90.7z M339.5,95.2c0,0.9,0.2,1.6,0.7,2.1
			s1.1,0.9,1.8,0.9c0.8,0,1.4-0.3,1.9-0.8c0.5-0.5,0.8-1.3,0.8-2.1s-0.3-1.6-0.8-2.1c-0.5-0.5-1.1-0.8-1.9-0.8
			c-0.8,0-1.3,0.3-1.8,0.8S339.5,94.4,339.5,95.2z"/>
		<path d="M351.5,83.9v15.9h-2.1V83.9H351.5z"/>
		<path d="M360.6,99.9V85.3h3.1c1.4,0,2.6,0.2,3.5,0.4c0.9,0.3,1.7,0.8,2.5,1.4c1.5,1.4,2.3,3.2,2.3,5.4c0,2.3-0.8,4-2.4,5.4
			c-0.8,0.7-1.6,1.2-2.5,1.4c-0.8,0.3-1.9,0.4-3.4,0.4L360.6,99.9L360.6,99.9z M362.8,97.8h1c1,0,1.8-0.1,2.5-0.3
			c0.6-0.2,1.2-0.6,1.8-1.1c1.1-1,1.6-2.3,1.6-3.9s-0.5-2.9-1.6-3.9c-1-0.9-2.4-1.3-4.2-1.3h-1L362.8,97.8L362.8,97.8z"/>
		<path d="M382.6,95.8H376c0.1,0.8,0.3,1.3,0.8,1.8c0.4,0.4,1,0.6,1.7,0.6c0.5,0,1-0.1,1.3-0.4s0.8-0.7,1.2-1.4l1.8,1
			c-0.3,0.5-0.6,0.9-0.9,1.2s-0.6,0.6-1,0.8s-0.8,0.4-1.1,0.5c-0.4,0.1-0.9,0.2-1.3,0.2c-1.4,0-2.5-0.4-3.3-1.3
			c-0.8-0.9-1.2-2-1.2-3.5c0-1.4,0.4-2.6,1.2-3.5c0.8-0.9,1.9-1.3,3.2-1.3c1.3,0,2.4,0.4,3.2,1.3c0.8,0.9,1.2,2,1.2,3.5V95.8
			L382.6,95.8z M380.4,94c-0.3-1.1-1-1.7-2.1-1.7c-0.3,0-0.5,0.1-0.8,0.1c-0.3,0.1-0.4,0.2-0.6,0.3c-0.2,0.1-0.3,0.3-0.5,0.5
			c-0.2,0.2-0.2,0.4-0.3,0.7L380.4,94L380.4,94z"/>
		<path d="M390.2,92.2l-1.8,0.9c-0.3-0.5-0.6-0.9-1-0.9c-0.2,0-0.4,0.1-0.5,0.2c-0.1,0.2-0.2,0.3-0.2,0.5c0,0.4,0.4,0.7,1.2,1
			c1.1,0.5,1.9,0.9,2.3,1.3c0.4,0.4,0.6,1,0.6,1.7c0,0.9-0.3,1.6-1,2.2c-0.6,0.6-1.4,0.9-2.3,0.9c-1.6,0-2.6-0.8-3.3-2.3l1.8-0.9
			c0.3,0.4,0.4,0.7,0.6,0.9c0.3,0.2,0.6,0.4,0.9,0.4c0.7,0,1.1-0.3,1.1-1c0-0.4-0.3-0.8-0.8-1.1c-0.2-0.1-0.4-0.2-0.6-0.3
			c-0.2-0.1-0.4-0.2-0.6-0.3c-0.6-0.3-1.1-0.6-1.3-0.9c-0.3-0.4-0.5-0.9-0.5-1.5c0-0.8,0.3-1.4,0.8-2c0.5-0.5,1.2-0.8,2-0.8
			C388.7,90.4,389.7,91,390.2,92.2z"/>
		<path d="M392.4,86.8c0-0.4,0.2-0.7,0.4-1s0.6-0.4,1-0.4s0.7,0.2,1,0.4c0.3,0.3,0.4,0.6,0.4,1c0,0.4-0.2,0.7-0.4,1
			c-0.3,0.3-0.6,0.4-1,0.4s-0.7-0.2-1-0.4C392.6,87.5,392.4,87.2,392.4,86.8z M394.9,90.7v9.2h-2.1v-9.2H394.9z"/>
		<path d="M406.4,99.6c0,0.4,0,0.8-0.1,1.1c-0.1,0.3-0.1,0.6-0.1,0.9c-0.2,0.7-0.4,1.3-0.9,1.8c-0.8,1-2,1.4-3.4,1.4
			c-1.2,0-2.3-0.3-3-1c-0.8-0.7-1.3-1.6-1.4-2.8h2.1c0.1,0.4,0.2,0.8,0.4,1.1c0.4,0.6,1.1,0.9,1.9,0.9c1.6,0,2.3-1,2.3-2.8v-1.3
			c-0.9,0.9-1.8,1.3-2.9,1.3c-1.2,0-2.3-0.4-3.1-1.3c-0.8-0.9-1.2-2-1.2-3.4c0-1.3,0.4-2.5,1.1-3.4c0.8-1,1.9-1.5,3.2-1.5
			c1.2,0,2.1,0.4,2.9,1.3v-1h2.1v9L406.4,99.6L406.4,99.6z M404.4,95.3c0-0.9-0.2-1.6-0.7-2.1c-0.5-0.5-1.1-0.8-1.9-0.8
			c-0.8,0-1.4,0.3-1.9,0.9c-0.4,0.5-0.6,1.2-0.6,2.1s0.2,1.5,0.6,2c0.5,0.6,1.1,0.9,1.9,0.9c0.9,0,1.4-0.3,1.9-0.9
			C404.1,96.8,404.4,96.1,404.4,95.3z"/>
		<path d="M409.1,90.7h2.1v0.9c0.8-0.8,1.6-1.1,2.5-1.1c1.1,0,1.9,0.3,2.5,1c0.5,0.6,0.8,1.5,0.8,2.8v5.6h-2.1v-5.2
			c0-0.9-0.1-1.5-0.4-1.9c-0.3-0.4-0.7-0.5-1.3-0.5c-0.7,0-1.2,0.2-1.5,0.7c-0.3,0.5-0.4,1.2-0.4,2.4v4.5h-2.1L409.1,90.7
			L409.1,90.7z"/>
		<path d="M303.3,118.6l2.6,3.2l0.1-0.1c0.3-0.3,0.5-0.6,0.8-0.9c0.3-0.3,0.5-0.6,0.8-0.9l1.4,1.4c-0.2,0.3-0.4,0.5-0.7,0.9
			c-0.3,0.3-0.6,0.7-1,1.1l2.7,3.3h-2.7l-1.4-1.8c-1.3,1.4-2.7,2-4.2,2c-1.3,0-2.4-0.4-3.3-1.2c-0.9-0.8-1.3-1.9-1.3-3.1
			c0-1.4,0.7-2.7,2.1-3.6l1-0.6c0,0,0.1,0,0.1-0.1c0-0.1,0.1-0.1,0.1-0.1c-1-1-1.4-2-1.4-3c0-1,0.3-1.8,1-2.4
			c0.6-0.6,1.5-0.9,2.5-0.9c1,0,1.8,0.3,2.5,0.9s1,1.3,1,2.3c0,0.6-0.2,1.2-0.5,1.7C304.8,117.2,304.2,117.9,303.3,118.6z
			 M301.5,119.8l-0.1,0.1c-0.9,0.6-1.5,1.1-1.8,1.5c-0.3,0.4-0.5,0.8-0.5,1.2c0,0.6,0.3,1.2,0.8,1.7c0.5,0.5,1.1,0.8,1.7,0.8
			c0.9,0,1.8-0.5,3-1.7L301.5,119.8z M302,117l0.2-0.1c0.3-0.2,0.5-0.4,0.8-0.6c0.2-0.2,0.3-0.3,0.4-0.4c0.2-0.2,0.3-0.5,0.3-0.9
			c0-0.4-0.1-0.7-0.4-0.9c-0.3-0.2-0.6-0.4-1-0.4c-0.4,0-0.8,0.1-1,0.4c-0.3,0.2-0.4,0.5-0.4,0.9c0,0.4,0.2,0.9,0.5,1.3l0.5,0.6
			C301.9,116.9,301.9,117,302,117z"/>
		<path d="M317.6,126.7v-14.6h3.1c1.4,0,2.6,0.2,3.5,0.4c0.9,0.3,1.7,0.8,2.5,1.4c1.5,1.4,2.3,3.2,2.3,5.4s-0.8,4-2.4,5.4
			c-0.8,0.7-1.6,1.2-2.5,1.4c-0.8,0.3-1.9,0.4-3.4,0.4H317.6L317.6,126.7z M319.8,124.6h1c1,0,1.8-0.1,2.5-0.3
			c0.6-0.2,1.2-0.6,1.8-1.1c1.1-1,1.6-2.3,1.6-3.9c0-1.6-0.5-2.9-1.6-3.9c-1-0.9-2.4-1.3-4.2-1.3h-1V124.6L319.8,124.6z"/>
		<path d="M339.6,122.6H333c0.1,0.8,0.3,1.3,0.8,1.8c0.4,0.4,1,0.6,1.7,0.6c0.5,0,1-0.1,1.3-0.4c0.3-0.3,0.8-0.7,1.2-1.4l1.8,1
			c-0.3,0.5-0.6,0.9-0.9,1.2c-0.3,0.4-0.6,0.6-1,0.8c-0.3,0.2-0.8,0.4-1.1,0.5c-0.4,0.1-0.9,0.2-1.3,0.2c-1.4,0-2.5-0.4-3.3-1.3
			c-0.8-0.9-1.2-2-1.2-3.5c0-1.4,0.4-2.6,1.2-3.5c0.8-0.9,1.9-1.3,3.2-1.3s2.4,0.4,3.2,1.3c0.8,0.9,1.2,2,1.2,3.5V122.6L339.6,122.6
			z M337.4,120.8c-0.3-1.1-1-1.7-2.1-1.7c-0.3,0-0.5,0.1-0.8,0.1c-0.3,0.1-0.4,0.2-0.6,0.3c-0.2,0.1-0.3,0.3-0.5,0.5
			s-0.2,0.4-0.3,0.7L337.4,120.8L337.4,120.8z"/>
		<path d="M342.8,117.5l2.4,5.2l2.4-5.2h2.4l-4.8,9.8l-4.7-9.8H342.8z"/>
		<path d="M359.3,122.6h-6.6c0.1,0.8,0.3,1.3,0.8,1.8c0.4,0.4,1,0.6,1.7,0.6c0.5,0,1-0.1,1.3-0.4c0.3-0.3,0.8-0.7,1.2-1.4l1.8,1
			c-0.3,0.5-0.6,0.9-0.9,1.2c-0.3,0.4-0.6,0.6-1,0.8c-0.3,0.2-0.8,0.4-1.1,0.5c-0.4,0.1-0.9,0.2-1.3,0.2c-1.4,0-2.5-0.4-3.3-1.3
			c-0.8-0.9-1.2-2-1.2-3.5c0-1.4,0.4-2.6,1.2-3.5c0.8-0.9,1.9-1.3,3.2-1.3c1.3,0,2.4,0.4,3.2,1.3c0.8,0.9,1.2,2,1.2,3.5L359.3,122.6
			L359.3,122.6z M357.2,120.8c-0.3-1.1-1-1.7-2.1-1.7c-0.3,0-0.5,0.1-0.8,0.1c-0.3,0.1-0.4,0.2-0.6,0.3s-0.3,0.3-0.5,0.5
			s-0.2,0.4-0.3,0.7L357.2,120.8L357.2,120.8L357.2,120.8z"/>
		<path d="M363.8,110.8v15.9h-2.1v-15.9H363.8z"/>
		<path d="M366,122c0-1.3,0.5-2.5,1.4-3.4c1-0.9,2.1-1.4,3.5-1.4s2.5,0.5,3.5,1.4c1,0.9,1.4,2.1,1.4,3.4c0,1.4-0.5,2.5-1.4,3.5
			c-1,0.9-2.1,1.4-3.5,1.4c-1.4,0-2.5-0.5-3.5-1.4C366.5,124.6,366,123.4,366,122z M368.2,122.1c0,0.9,0.3,1.7,0.8,2.2
			c0.5,0.5,1.2,0.8,2,0.8c0.8,0,1.5-0.3,2-0.8c0.5-0.5,0.8-1.2,0.8-2.1s-0.3-1.6-0.8-2.1s-1.2-0.8-2-0.8c-0.8,0-1.4,0.3-2,0.8
			C368.5,120.5,368.2,121.2,368.2,122.1z"/>
		<path d="M380.2,131.7h-2.1v-14.2h2.1v1c0.9-0.9,1.8-1.2,2.8-1.2c1.3,0,2.3,0.5,3.1,1.4c0.8,0.9,1.2,2.1,1.2,3.5s-0.4,2.5-1.2,3.4
			c-0.8,0.9-1.8,1.3-3.1,1.3c-1.1,0-2-0.4-2.9-1.3L380.2,131.7L380.2,131.7L380.2,131.7z M385.3,122.1c0-0.9-0.2-1.6-0.7-2.1
			c-0.5-0.5-1.1-0.9-1.8-0.9c-0.8,0-1.4,0.3-1.9,0.8c-0.5,0.5-0.8,1.2-0.8,2.1c0,0.9,0.3,1.6,0.8,2.1c0.5,0.5,1.1,0.8,1.9,0.8
			c0.8,0,1.3-0.3,1.8-0.8C385,123.7,385.3,123,385.3,122.1z"/>
		<path d="M389.7,117.5h2.1v0.9c0.4-0.4,0.8-0.7,1.1-0.9c0.3-0.2,0.7-0.2,1.2-0.2c1,0,1.9,0.4,2.5,1.3c0.6-0.9,1.6-1.3,2.7-1.3
			c2.1,0,3.1,1.2,3.1,3.8v5.7h-2.1v-5.1c0-0.9-0.1-1.5-0.3-1.9c-0.2-0.4-0.6-0.5-1.1-0.5c-0.6,0-1,0.2-1.3,0.6
			c-0.3,0.4-0.4,1.1-0.4,2.1v4.7H395v-5.1c0-1.6-0.5-2.5-1.4-2.5c-0.6,0-1,0.2-1.3,0.6s-0.4,1.1-0.4,2.1v4.7h-2.1L389.7,117.5
			L389.7,117.5z"/>
		<path d="M413.3,122.6h-6.6c0.1,0.8,0.3,1.3,0.8,1.8c0.4,0.4,1,0.6,1.7,0.6c0.5,0,1-0.1,1.3-0.4c0.3-0.3,0.8-0.7,1.2-1.4l1.8,1
			c-0.3,0.5-0.6,0.9-0.9,1.2c-0.3,0.4-0.6,0.6-1,0.8c-0.3,0.2-0.8,0.4-1.1,0.5c-0.4,0.1-0.9,0.2-1.3,0.2c-1.4,0-2.5-0.4-3.3-1.3
			c-0.8-0.9-1.2-2-1.2-3.5c0-1.4,0.4-2.6,1.2-3.5c0.8-0.9,1.9-1.3,3.2-1.3c1.3,0,2.4,0.4,3.2,1.3c0.8,0.9,1.2,2,1.2,3.5L413.3,122.6
			L413.3,122.6z M411.2,120.8c-0.3-1.1-1-1.7-2.1-1.7c-0.3,0-0.5,0.1-0.8,0.1c-0.3,0.1-0.4,0.2-0.6,0.3s-0.3,0.3-0.5,0.5
			c-0.2,0.2-0.2,0.4-0.3,0.7L411.2,120.8L411.2,120.8L411.2,120.8z"/>
		<path d="M415.6,117.5h2.1v0.9c0.8-0.8,1.6-1.1,2.5-1.1c1.1,0,1.9,0.3,2.5,1c0.5,0.6,0.8,1.5,0.8,2.8v5.6h-2.1v-5.2
			c0-0.9-0.1-1.5-0.4-1.9c-0.3-0.4-0.7-0.5-1.3-0.5c-0.7,0-1.2,0.2-1.5,0.7c-0.3,0.5-0.4,1.2-0.4,2.4v4.5h-2.1L415.6,117.5
			L415.6,117.5z"/>
		<path d="M428.5,119.5v7.2h-2.1v-7.2h-0.9v-2h0.9v-3.4h2.1v3.4h1.7v2H428.5z"/>
	</g>
	<rect x="250.8" y="69.3" transform="matrix(0.7071 0.7071 -0.7071 0.7071 148.1062 -147.0932)" width="1.6" height="72"/>
</g>
</svg>
