<?xml version="1.0" encoding="utf-8"?>
<!-- Generator: Adobe Illustrator 15.0.2, SVG Export Plug-In . SVG Version: 6.00 Build 0)  -->
<!DOCTYPE svg PUBLIC "-//W3C//DTD SVG 1.1//EN" "http://www.w3.org/Graphics/SVG/1.1/DTD/svg11.dtd">
<svg version="1.1" id="Layer_1" xmlns="http://www.w3.org/2000/svg" xmlns:xlink="http://www.w3.org/1999/xlink" x="0px" y="0px"
	 width="432px" height="81.409px" viewBox="-1.881 70.291 432 81.409" enable-background="new -1.881 70.291 432 81.409"
	 xml:space="preserve">
<g>
	<g>
		<path d="M24.629,130.663v-2.844c3.703-0.43,4.132-1.127,4.132-6.171v-18.729c0-5.259-0.268-6.011-4.455-6.011h-9.123v24.9
			c0,4.83,0.967,5.474,5.045,6.011v2.844H-0.916v-2.844c4.562-0.43,5.259-1.181,5.259-6.011v-24.9h-5.903l-0.322-1.127l2.576-3.111
			H4.29v-1.879c0-3.005,0.751-5.474,2.039-8.05c1.396-2.736,3.596-5.152,6.708-7.459c4.025-3.113,8.748-4.83,12.719-4.991
			c5.098,0.161,8.264,2.146,9.981,4.025c1.288,1.61,1.449,3.327,0.751,4.722c-0.429,1.02-1.449,2.254-2.683,2.844
			c-1.556,0.967-2.844,0.752-3.596-0.268c-1.395-1.824-4.4-6.87-9.552-6.87c-2.307,0-3.971,1.986-4.615,5.045
			c-0.59,2.307-0.859,6.439-0.859,10.196v2.684h8.587c3.863,0,11.162-0.107,15.992-1.021v29.945c0,5.045,0.429,5.688,5.152,6.172
			v2.845H24.629V130.663z"/>
		<path d="M86.343,93.582c-0.537,1.449-2.147,4.293-3.703,5.259l-4.884-0.322c1.395,1.61,2.308,3.596,2.308,6.547
			c0,8.909-7.996,13.416-16.421,13.416c-1.556,0-2.898-0.269-4.186-0.429c-0.697,0.697-1.18,1.449-1.18,2.414
			c0,1.449,1.395,3.328,5.474,3.274c2.737,0,5.152-0.107,7.888-0.107c5.313,0,13.202,1.449,13.202,10.465
			c0,9.767-11.484,17.602-22.915,17.602c-11.055-0.107-16.045-5.742-16.045-10.571c0-1.879,0.965-3.273,2.683-4.723
			c2.039-1.61,4.293-2.845,6.547-4.187c-3.596-1.287-5.259-2.898-6.44-4.723c-0.966-1.395-1.396-3.434-1.288-4.615
			c4.454-1.824,7.137-4.132,8.748-5.688c-5.206-1.717-8.425-6.117-8.425-11.431c0-9.604,8.908-14.06,16.635-14.06
			c3.542,0,6.011,0.697,9.177,2.308c4.454-0.161,9.016-0.698,12.45-1.021L86.343,93.582z M57.15,134.259
			c-1.181,1.288-1.986,2.576-1.986,4.401c0,4.132,4.293,8.264,11.055,8.264c6.547,0,10.41-3.541,10.41-8.049
			c0-3.113-2.146-4.884-4.83-5.581c-2.307-0.591-4.186-0.752-7.405-0.752C60.209,132.435,58.438,132.863,57.15,134.259z
			 M58.652,104.368c0,6.01,1.985,10.841,5.903,10.841c3.327,0,5.152-3.436,5.152-9.769c0-5.58-1.825-10.571-5.903-10.571
			C61.175,94.869,58.652,98.089,58.652,104.368z"/>
		<path d="M107.111,130.717c-1.556,0.591-2.897,0.966-3.542,0.966c-6.601,0-10.464-3.112-10.464-10.84V96.801h-5.366l-0.43-1.02
			l2.415-3.111h3.435v-6.226l9.713-6.709l1.181,0.537v12.45h8.372c1.02,0.967,0.858,3.436-0.537,4.133h-7.888v21.197
			c0,6.708,3.112,7.459,4.883,7.459c1.449,0,2.845-0.321,4.293-1.02l0.859,3.005L107.111,130.717z"/>
		<path d="M131.69,100.665c3.112-5.313,6.44-9.017,9.605-9.017c3.435,0,5.742,2.416,5.742,5.314c0,3.112-1.878,5.474-4.186,6.331
			c-1.181,0.43-2.04,0.162-2.683-0.321c-1.449-1.181-2.469-1.825-3.972-1.825c-1.61,0-3.327,1.127-4.83,4.455v15.991
			c0,5.313,0.537,5.688,7.138,6.278v2.738H115v-2.738c4.615-0.535,5.474-0.965,5.474-6.278v-18.675c0-4.4-0.698-4.723-4.616-5.688
			v-2.414c5.152-0.699,10.196-1.611,15.563-3.274v9.123H131.69z"/>
		<path d="M181.276,122.131c-5.259,7.835-11.914,9.552-15.456,9.552c-11.43,0-17.763-8.479-17.763-18.353
			c0-6.548,2.736-12.021,6.333-15.562c3.756-3.757,8.479-6.119,13.201-6.119c7.889,0,14.006,6.763,13.899,13.847
			c0,1.717-0.537,2.844-2.469,3.112c-1.556,0.161-12.021,1.02-20.446,1.396c0.429,9.177,5.474,13.846,11.592,13.846
			c3.327,0,6.547-1.127,9.552-3.703L181.276,122.131z M159.005,105.925c3.542-0.107,6.708-0.162,10.196-0.27
			c1.288-0.107,1.717-0.268,1.825-1.717c0-4.4-1.878-8.854-5.259-8.854C162.547,95.084,159.542,99.055,159.005,105.925z"/>
		<path d="M215.729,122.131c-5.259,7.835-11.914,9.552-15.456,9.552c-11.431,0-17.763-8.479-17.763-18.353
			c0-6.548,2.737-12.021,6.332-15.562c3.757-3.757,8.479-6.119,13.202-6.119c7.888,0,14.005,6.763,13.899,13.847
			c0,1.717-0.537,2.844-2.469,3.112c-1.556,0.161-12.021,1.02-20.446,1.396c0.429,9.177,5.473,13.846,11.591,13.846
			c3.327,0,6.547-1.127,9.552-3.703L215.729,122.131z M193.511,105.925c3.542-0.107,6.708-0.162,10.196-0.27
			c1.288-0.107,1.717-0.268,1.825-1.717c0-4.4-1.878-8.854-5.259-8.854C197,95.084,193.994,99.055,193.511,105.925z"/>
	</g>
	<g>
		<path d="M297.567,99.86V85.263h3.059c1.449,0,2.629,0.162,3.488,0.43c0.913,0.269,1.718,0.752,2.469,1.449
			c1.502,1.396,2.254,3.166,2.254,5.421c0,2.254-0.806,4.023-2.362,5.42c-0.805,0.697-1.61,1.18-2.469,1.448
			c-0.805,0.269-1.931,0.43-3.435,0.43H297.567z M299.767,97.768h0.966c0.966,0,1.824-0.107,2.468-0.322
			c0.645-0.215,1.234-0.59,1.771-1.073c1.073-0.966,1.61-2.255,1.61-3.864s-0.537-2.897-1.61-3.863
			c-0.966-0.913-2.361-1.342-4.239-1.342h-0.966V97.768L299.767,97.768z"/>
		<path d="M310.822,86.819c0-0.375,0.161-0.697,0.429-0.966s0.59-0.429,0.966-0.429s0.697,0.16,0.966,0.429s0.43,0.591,0.43,0.966
			c0,0.376-0.161,0.698-0.43,0.967c-0.269,0.268-0.59,0.429-0.966,0.429s-0.698-0.161-0.966-0.429
			C310.983,87.518,310.822,87.249,310.822,86.819z M313.291,90.684v9.177h-2.146v-9.177H313.291z"/>
		<path d="M324.882,99.646c0,0.43,0,0.805-0.054,1.127s-0.054,0.645-0.107,0.858c-0.161,0.698-0.43,1.288-0.912,1.771
			c-0.805,0.967-1.986,1.449-3.435,1.449c-1.234,0-2.254-0.322-3.004-1.02c-0.806-0.697-1.288-1.609-1.396-2.844h2.146
			c0.108,0.43,0.215,0.805,0.43,1.073c0.43,0.591,1.073,0.858,1.932,0.858c1.556,0,2.307-0.966,2.307-2.844v-1.288
			c-0.858,0.858-1.825,1.288-2.898,1.288c-1.234,0-2.253-0.43-3.059-1.342c-0.805-0.913-1.181-2.04-1.181-3.435
			c0-1.342,0.376-2.469,1.127-3.435c0.805-1.021,1.878-1.503,3.167-1.503c1.181,0,2.092,0.43,2.897,1.287v-0.965h2.146v8.962
			H324.882z M322.843,95.299c0-0.912-0.214-1.609-0.698-2.146c-0.482-0.537-1.126-0.805-1.878-0.805
			c-0.805,0-1.448,0.322-1.931,0.912c-0.43,0.536-0.644,1.234-0.644,2.092c0,0.859,0.214,1.504,0.644,2.04
			c0.483,0.591,1.073,0.858,1.931,0.858c0.859,0,1.449-0.268,1.933-0.858C322.628,96.801,322.843,96.104,322.843,95.299z"/>
		<path d="M327.243,86.819c0-0.375,0.161-0.697,0.43-0.966c0.268-0.269,0.59-0.429,0.966-0.429c0.375,0,0.697,0.16,0.966,0.429
			c0.268,0.269,0.429,0.591,0.429,0.966c0,0.376-0.161,0.698-0.429,0.967c-0.269,0.268-0.59,0.429-0.966,0.429
			c-0.376,0-0.698-0.161-0.966-0.429C327.404,87.518,327.243,87.249,327.243,86.819z M329.658,90.684v9.177h-2.146v-9.177H329.658z"
			/>
		<path d="M334.542,92.67v7.19h-2.146v-7.19h-0.912v-1.986h0.912v-3.381h2.146v3.381h1.664v1.986H334.542z"/>
		<path d="M344.577,90.684h2.146v9.177h-2.146v-0.967c-0.858,0.806-1.824,1.235-2.844,1.235c-1.288,0-2.307-0.483-3.166-1.396
			c-0.805-0.913-1.235-2.093-1.235-3.489c0-1.395,0.43-2.521,1.235-3.434c0.805-0.912,1.878-1.396,3.112-1.396
			c1.074,0,2.04,0.429,2.897,1.342V90.684z M339.533,95.244c0,0.859,0.214,1.611,0.698,2.147c0.483,0.536,1.073,0.858,1.825,0.858
			c0.805,0,1.395-0.268,1.932-0.805c0.483-0.537,0.751-1.287,0.751-2.146s-0.269-1.557-0.751-2.146
			c-0.483-0.537-1.127-0.805-1.878-0.805c-0.751,0-1.341,0.268-1.824,0.805S339.533,94.387,339.533,95.244z"/>
		<path d="M351.5,83.921V99.86h-2.147V83.921H351.5z"/>
		<path d="M360.569,99.86V85.263h3.059c1.449,0,2.63,0.162,3.488,0.43c0.913,0.269,1.718,0.752,2.469,1.449
			c1.502,1.396,2.254,3.166,2.254,5.421c0,2.254-0.805,4.023-2.361,5.42c-0.805,0.697-1.61,1.18-2.469,1.448
			c-0.805,0.269-1.932,0.43-3.435,0.43H360.569z M362.77,97.768h0.966c0.966,0,1.825-0.107,2.469-0.322
			c0.644-0.215,1.234-0.59,1.771-1.073c1.074-0.966,1.61-2.255,1.61-3.864s-0.537-2.897-1.61-3.863
			c-0.966-0.913-2.361-1.342-4.239-1.342h-0.966V97.768L362.77,97.768z"/>
		<path d="M382.572,95.781h-6.601c0.054,0.752,0.322,1.342,0.752,1.825c0.429,0.429,0.965,0.644,1.663,0.644
			c0.537,0,0.966-0.107,1.288-0.375c0.322-0.269,0.751-0.698,1.181-1.396l1.771,1.021c-0.269,0.483-0.59,0.858-0.859,1.234
			c-0.268,0.376-0.644,0.59-0.966,0.805c-0.322,0.215-0.75,0.376-1.126,0.482c-0.376,0.108-0.858,0.162-1.342,0.162
			c-1.395,0-2.468-0.43-3.327-1.342c-0.805-0.913-1.234-2.04-1.234-3.542c0-1.449,0.43-2.629,1.181-3.542
			c0.805-0.913,1.878-1.342,3.219-1.342c1.342,0,2.415,0.429,3.22,1.288c0.805,0.859,1.181,2.039,1.181,3.541V95.781z
			 M380.372,94.011c-0.322-1.127-1.02-1.718-2.147-1.718c-0.269,0-0.482,0.055-0.751,0.107c-0.268,0.055-0.43,0.215-0.644,0.322
			c-0.215,0.107-0.322,0.322-0.483,0.537c-0.161,0.215-0.214,0.43-0.322,0.697h4.347V94.011z"/>
		<path d="M390.192,92.24l-1.771,0.912c-0.269-0.537-0.644-0.859-1.019-0.859c-0.215,0-0.376,0.055-0.483,0.215
			c-0.108,0.162-0.215,0.268-0.215,0.482c0,0.377,0.43,0.699,1.235,1.021c1.127,0.483,1.878,0.912,2.253,1.341
			c0.375,0.43,0.59,0.967,0.59,1.664c0,0.912-0.322,1.61-0.966,2.2c-0.644,0.591-1.396,0.859-2.308,0.859
			c-1.556,0-2.629-0.752-3.273-2.255l1.825-0.857c0.269,0.429,0.429,0.697,0.59,0.857c0.268,0.215,0.59,0.376,0.912,0.376
			c0.697,0,1.073-0.321,1.073-0.966c0-0.375-0.269-0.752-0.805-1.072c-0.215-0.108-0.429-0.216-0.645-0.322
			c-0.215-0.107-0.429-0.215-0.644-0.322c-0.59-0.322-1.073-0.591-1.288-0.912c-0.323-0.377-0.483-0.859-0.483-1.504
			c0-0.805,0.268-1.449,0.805-1.984c0.537-0.537,1.234-0.806,2.04-0.806C388.743,90.415,389.655,91.006,390.192,92.24z"/>
		<path d="M392.393,86.819c0-0.375,0.161-0.697,0.429-0.966c0.268-0.269,0.59-0.429,0.966-0.429s0.697,0.16,0.966,0.429
			c0.268,0.269,0.43,0.591,0.43,0.966c0,0.376-0.162,0.698-0.43,0.967c-0.269,0.268-0.59,0.429-0.966,0.429
			s-0.698-0.161-0.966-0.429C392.553,87.518,392.393,87.249,392.393,86.819z M394.861,90.684v9.177h-2.146v-9.177H394.861z"/>
		<path d="M406.398,99.646c0,0.43,0,0.805-0.054,1.127s-0.054,0.645-0.107,0.858c-0.16,0.698-0.429,1.288-0.912,1.771
			c-0.805,0.967-1.985,1.449-3.434,1.449c-1.235,0-2.254-0.322-3.005-1.02c-0.805-0.697-1.288-1.609-1.395-2.844h2.146
			c0.107,0.43,0.214,0.805,0.429,1.073c0.429,0.591,1.073,0.858,1.932,0.858c1.557,0,2.308-0.966,2.308-2.844v-1.288
			c-0.858,0.858-1.824,1.288-2.897,1.288c-1.234,0-2.254-0.43-3.06-1.342c-0.805-0.913-1.181-2.04-1.181-3.435
			c0-1.342,0.376-2.469,1.127-3.435c0.805-1.021,1.878-1.503,3.166-1.503c1.181,0,2.093,0.43,2.898,1.287v-0.965h2.146v8.962
			H406.398z M404.359,95.299c0-0.912-0.215-1.609-0.697-2.146c-0.483-0.537-1.127-0.805-1.878-0.805
			c-0.805,0-1.449,0.322-1.932,0.912c-0.43,0.536-0.644,1.234-0.644,2.092c0,0.859,0.214,1.504,0.644,2.04
			c0.483,0.591,1.073,0.858,1.932,0.858c0.858,0,1.449-0.268,1.932-0.858C404.145,96.801,404.359,96.104,404.359,95.299z"/>
		<path d="M409.082,90.684h2.146v0.858c0.752-0.751,1.557-1.127,2.522-1.127c1.073,0,1.878,0.322,2.522,1.021
			c0.536,0.59,0.751,1.502,0.751,2.789v5.636h-2.146v-5.151c0-0.913-0.107-1.504-0.376-1.879c-0.268-0.375-0.697-0.537-1.342-0.537
			c-0.697,0-1.18,0.215-1.502,0.697c-0.27,0.484-0.43,1.234-0.43,2.416v4.454h-2.146V90.684L409.082,90.684z"/>
		<path d="M303.255,118.589l2.63,3.167l0.107-0.107c0.268-0.323,0.536-0.591,0.805-0.913c0.269-0.321,0.483-0.59,0.751-0.912
			l1.449,1.449c-0.16,0.269-0.429,0.536-0.697,0.858s-0.644,0.697-1.02,1.127l2.683,3.327h-2.737l-1.449-1.771
			c-1.341,1.396-2.737,2.04-4.186,2.04c-1.289,0-2.361-0.43-3.273-1.235c-0.859-0.805-1.341-1.877-1.341-3.058
			c0-1.449,0.697-2.684,2.092-3.649l0.966-0.644c0,0,0.053,0,0.053-0.055c0-0.053,0.054-0.053,0.107-0.107
			c-0.966-1.02-1.448-2.039-1.448-3.004c0-0.967,0.321-1.771,0.965-2.416c0.644-0.59,1.503-0.912,2.522-0.912
			s1.824,0.322,2.468,0.912s0.966,1.342,0.966,2.254c0,0.645-0.161,1.182-0.536,1.718
			C304.812,117.248,304.222,117.891,303.255,118.589z M301.538,119.823l-0.107,0.107c-0.912,0.644-1.502,1.127-1.825,1.503
			c-0.322,0.375-0.483,0.751-0.483,1.181c0,0.59,0.269,1.181,0.751,1.663c0.483,0.483,1.073,0.751,1.664,0.751
			c0.859,0,1.825-0.536,2.952-1.663L301.538,119.823z M302.021,117.033l0.161-0.107c0.322-0.215,0.536-0.43,0.751-0.591
			c0.215-0.161,0.322-0.321,0.43-0.429c0.215-0.215,0.268-0.537,0.268-0.859c0-0.375-0.107-0.697-0.375-0.912
			c-0.269-0.215-0.59-0.375-1.02-0.375c-0.376,0-0.751,0.107-1.02,0.375c-0.269,0.215-0.43,0.537-0.43,0.912
			c0,0.43,0.161,0.859,0.483,1.288l0.537,0.644C301.914,116.926,301.914,116.979,302.021,117.033z"/>
		<path d="M317.638,126.692v-14.597h3.058c1.449,0,2.63,0.161,3.488,0.43c0.913,0.268,1.718,0.75,2.469,1.449
			c1.503,1.395,2.254,3.166,2.254,5.42s-0.805,4.024-2.362,5.419c-0.805,0.698-1.609,1.182-2.468,1.449
			c-0.805,0.27-1.932,0.43-3.435,0.43H317.638z M319.838,124.6h0.966c0.966,0,1.825-0.107,2.469-0.322
			c0.644-0.214,1.234-0.59,1.771-1.073c1.073-0.966,1.609-2.253,1.609-3.864c0-1.609-0.536-2.896-1.609-3.863
			c-0.966-0.912-2.362-1.342-4.24-1.342h-0.966V124.6L319.838,124.6z"/>
		<path d="M339.64,122.614h-6.601c0.054,0.751,0.322,1.342,0.751,1.824c0.429,0.43,0.966,0.645,1.663,0.645
			c0.537,0,0.967-0.107,1.288-0.376c0.322-0.269,0.752-0.698,1.181-1.396l1.771,1.02c-0.269,0.482-0.59,0.859-0.858,1.234
			c-0.269,0.376-0.645,0.59-0.967,0.805c-0.321,0.215-0.751,0.376-1.127,0.483c-0.375,0.106-0.858,0.161-1.341,0.161
			c-1.395,0-2.468-0.43-3.327-1.342c-0.805-0.912-1.234-2.039-1.234-3.542c0-1.449,0.43-2.629,1.181-3.542
			c0.805-0.912,1.878-1.341,3.22-1.341c1.342,0,2.416,0.429,3.22,1.287c0.805,0.859,1.181,2.039,1.181,3.542V122.614z
			 M337.44,120.843c-0.322-1.127-1.02-1.718-2.147-1.718c-0.268,0-0.482,0.055-0.751,0.107c-0.269,0.055-0.43,0.215-0.644,0.322
			c-0.215,0.107-0.322,0.322-0.483,0.537c-0.161,0.215-0.215,0.429-0.322,0.697h4.347V120.843z"/>
		<path d="M342.753,117.516l2.361,5.151l2.361-5.151h2.361l-4.776,9.821l-4.669-9.821H342.753z"/>
		<path d="M359.334,122.614h-6.6c0.054,0.751,0.322,1.342,0.751,1.824c0.43,0.43,0.966,0.645,1.664,0.645
			c0.537,0,0.966-0.107,1.288-0.376c0.322-0.269,0.751-0.698,1.181-1.396l1.771,1.02c-0.269,0.482-0.59,0.859-0.859,1.234
			c-0.269,0.376-0.644,0.59-0.966,0.805s-0.751,0.376-1.127,0.483c-0.375,0.106-0.859,0.161-1.341,0.161
			c-1.396,0-2.469-0.43-3.328-1.342c-0.805-0.912-1.234-2.039-1.234-3.542c0-1.449,0.43-2.629,1.181-3.542
			c0.806-0.912,1.878-1.341,3.22-1.341s2.415,0.429,3.22,1.287c0.805,0.859,1.18,2.039,1.18,3.542V122.614z M357.188,120.843
			c-0.322-1.127-1.019-1.718-2.146-1.718c-0.269,0-0.483,0.055-0.751,0.107c-0.268,0.055-0.429,0.215-0.644,0.322
			s-0.322,0.322-0.483,0.537c-0.161,0.215-0.214,0.429-0.321,0.697h4.346V120.843z"/>
		<path d="M363.79,110.754v15.938h-2.147v-15.938H363.79z"/>
		<path d="M366.043,122.023c0-1.342,0.483-2.469,1.449-3.381s2.093-1.395,3.488-1.395c1.396,0,2.522,0.482,3.488,1.395
			c0.965,0.912,1.396,2.093,1.396,3.435c0,1.395-0.483,2.522-1.449,3.488c-0.966,0.912-2.146,1.395-3.542,1.395
			c-1.395,0-2.522-0.482-3.488-1.395C366.526,124.6,366.043,123.419,366.043,122.023z M368.243,122.077
			c0,0.912,0.269,1.664,0.751,2.2s1.181,0.806,1.985,0.806s1.502-0.27,1.986-0.806c0.483-0.536,0.751-1.234,0.751-2.146
			s-0.269-1.61-0.751-2.146c-0.483-0.537-1.181-0.805-1.986-0.805s-1.449,0.268-1.985,0.805
			C368.458,120.521,368.243,121.219,368.243,122.077z"/>
		<path d="M380.21,131.683h-2.147v-14.167h2.147v1.02c0.858-0.858,1.771-1.234,2.844-1.234c1.288,0,2.308,0.483,3.113,1.396
			c0.805,0.912,1.235,2.092,1.235,3.487c0,1.395-0.43,2.522-1.235,3.434c-0.805,0.914-1.825,1.342-3.113,1.342
			c-1.073,0-2.039-0.428-2.897-1.287v6.01H380.21z M385.255,122.131c0-0.858-0.215-1.61-0.699-2.146
			c-0.482-0.537-1.073-0.859-1.824-0.859c-0.805,0-1.396,0.27-1.878,0.806s-0.751,1.234-0.751,2.146
			c0,0.858,0.269,1.557,0.751,2.146c0.483,0.537,1.126,0.805,1.878,0.805c0.751,0,1.342-0.268,1.824-0.805
			C385.04,123.688,385.255,122.989,385.255,122.131z"/>
		<path d="M389.655,117.516h2.146v0.858c0.43-0.429,0.751-0.697,1.073-0.858c0.322-0.16,0.698-0.215,1.181-0.215
			c1.02,0,1.878,0.43,2.469,1.342c0.643-0.912,1.556-1.342,2.683-1.342c2.092,0,3.112,1.234,3.112,3.757v5.688h-2.146v-5.098
			c0-0.859-0.107-1.503-0.322-1.879c-0.214-0.375-0.59-0.537-1.073-0.537c-0.59,0-1.02,0.215-1.288,0.645
			c-0.269,0.43-0.376,1.127-0.376,2.146v4.723h-2.146v-5.098c0-1.61-0.483-2.469-1.395-2.469c-0.59,0-1.02,0.215-1.289,0.644
			c-0.268,0.43-0.429,1.128-0.429,2.093v4.723h-2.146v-9.123H389.655z"/>
		<path d="M413.322,122.614h-6.602c0.054,0.751,0.322,1.342,0.751,1.824c0.429,0.43,0.966,0.645,1.664,0.645
			c0.536,0,0.966-0.107,1.288-0.376s0.752-0.698,1.18-1.396l1.771,1.02c-0.269,0.482-0.59,0.859-0.858,1.234
			c-0.269,0.376-0.644,0.59-0.966,0.805s-0.752,0.376-1.127,0.483c-0.376,0.106-0.859,0.161-1.342,0.161
			c-1.396,0-2.469-0.43-3.328-1.342c-0.805-0.912-1.233-2.039-1.233-3.542c0-1.449,0.429-2.629,1.181-3.542
			c0.805-0.912,1.878-1.341,3.22-1.341c1.341,0,2.415,0.429,3.22,1.287c0.805,0.859,1.182,2.039,1.182,3.542V122.614z
			 M411.176,120.843c-0.323-1.127-1.021-1.718-2.147-1.718c-0.269,0-0.483,0.055-0.751,0.107c-0.27,0.055-0.43,0.215-0.645,0.322
			s-0.322,0.322-0.482,0.537c-0.161,0.215-0.215,0.429-0.322,0.697h4.348V120.843z"/>
		<path d="M415.629,117.516h2.146v0.858c0.752-0.751,1.557-1.126,2.522-1.126c1.073,0,1.879,0.321,2.522,1.02
			c0.536,0.59,0.751,1.502,0.751,2.79v5.635h-2.146v-5.151c0-0.913-0.107-1.503-0.375-1.879c-0.27-0.375-0.699-0.537-1.342-0.537
			c-0.698,0-1.181,0.215-1.504,0.698c-0.268,0.483-0.429,1.234-0.429,2.415v4.454h-2.146V117.516L415.629,117.516z"/>
		<path d="M428.455,119.502v7.19h-2.147v-7.19h-0.912v-1.986h0.912v-3.381h2.147v3.381h1.663v1.986H428.455z"/>
	</g>
	<rect x="250.804" y="69.249" transform="matrix(-0.7071 -0.7071 0.7071 -0.7071 355.1141 357.555)" width="1.61" height="71.964"/>
</g>
</svg>
