<?xml version="1.0" encoding="utf-8"?>
<!-- Generator: Adobe Illustrator 15.0.2, SVG Export Plug-In . SVG Version: 6.00 Build 0)  -->
<!DOCTYPE svg PUBLIC "-//W3C//DTD SVG 1.1//EN" "http://www.w3.org/Graphics/SVG/1.1/DTD/svg11.dtd">
<svg version="1.1" id="Layer_1" xmlns="http://www.w3.org/2000/svg" xmlns:xlink="http://www.w3.org/1999/xlink" x="0px" y="0px"
	 width="804.9px" height="151.5px" viewBox="0 0 804.9 151.5" style="enable-background:new 0 0 804.9 151.5;" xml:space="preserve"
	>
<g>
	<path d="M49.4,112.5v-5.3c6.9-0.8,7.7-2.1,7.7-11.5V60.8c0-9.8-0.5-11.2-8.3-11.2h-17V96c0,9,1.8,10.2,9.4,11.2v5.3H1.8v-5.3
		c8.5-0.8,9.8-2.2,9.8-11.2V49.6H0.6L0,47.5l4.8-5.8h6.7v-3.5c0-5.6,1.4-10.2,3.8-15c2.6-5.1,6.7-9.6,12.5-13.9
		c7.5-5.8,16.3-9,23.7-9.3C61,0.3,66.9,4,70.1,7.5c2.4,3,2.7,6.2,1.4,8.8c-0.8,1.9-2.7,4.2-5,5.3c-2.9,1.8-5.3,1.4-6.7-0.5
		c-2.6-3.4-8.2-12.8-17.8-12.8c-4.3,0-7.4,3.7-8.6,9.4c-1.1,4.3-1.6,12-1.6,19v5h16c7.2,0,20.8-0.2,29.8-1.9v55.8
		c0,9.4,0.8,10.6,9.6,11.5v5.3H49.4z"/>
	<path d="M164.4,43.4c-1,2.7-4,8-6.9,9.8l-9.1-0.6c2.6,3,4.3,6.7,4.3,12.2c0,16.6-14.9,25-30.6,25c-2.9,0-5.4-0.5-7.8-0.8
		c-1.3,1.3-2.2,2.7-2.2,4.5c0,2.7,2.6,6.2,10.2,6.1c5.1,0,9.6-0.2,14.7-0.2c9.9,0,24.6,2.7,24.6,19.5c0,18.2-21.4,32.8-42.7,32.8
		C98.3,151.5,89,141,89,132c0-3.5,1.8-6.1,5-8.8c3.8-3,8-5.3,12.2-7.8c-6.7-2.4-9.8-5.4-12-8.8c-1.8-2.6-2.6-6.4-2.4-8.6
		c8.3-3.4,13.3-7.7,16.3-10.6C98.4,84.2,92.4,76,92.4,66.1c0-17.9,16.6-26.2,31-26.2c6.6,0,11.2,1.3,17.1,4.3
		c8.3-0.3,16.8-1.3,23.2-1.9L164.4,43.4z M110,119.2c-2.2,2.4-3.7,4.8-3.7,8.2c0,7.7,8,15.4,20.6,15.4c12.2,0,19.4-6.6,19.4-15
		c0-5.8-4-9.1-9-10.4c-4.3-1.1-7.8-1.4-13.8-1.4C115.7,115.8,112.4,116.6,110,119.2z M112.8,63.5c0,11.2,3.7,20.2,11,20.2
		c6.2,0,9.6-6.4,9.6-18.2c0-10.4-3.4-19.7-11-19.7C117.5,45.8,112.8,51.8,112.8,63.5z"/>
	<path d="M203.1,112.6c-2.9,1.1-5.4,1.8-6.6,1.8c-12.3,0-19.5-5.8-19.5-20.2V49.4H167l-0.8-1.9l4.5-5.8h6.4V30.1l18.1-12.5l2.2,1
		v23.2H213c1.9,1.8,1.6,6.4-1,7.7h-14.7V89c0,12.5,5.8,13.9,9.1,13.9c2.7,0,5.3-0.6,8-1.9l1.6,5.6L203.1,112.6z"/>
	<path d="M248.9,56.6c5.8-9.9,12-16.8,17.9-16.8c6.4,0,10.7,4.5,10.7,9.9c0,5.8-3.5,10.2-7.8,11.8c-2.2,0.8-3.8,0.3-5-0.6
		c-2.7-2.2-4.6-3.4-7.4-3.4c-3,0-6.2,2.1-9,8.3v29.8c0,9.9,1,10.6,13.3,11.7v5.1h-43.8v-5.1c8.6-1,10.2-1.8,10.2-11.7V60.8
		c0-8.2-1.3-8.8-8.6-10.6v-4.5c9.6-1.3,19-3,29-6.1v17H248.9z"/>
	<path d="M341.3,96.6c-9.8,14.6-22.2,17.8-28.8,17.8c-21.3,0-33.1-15.8-33.1-34.2c0-12.2,5.1-22.4,11.8-29c7-7,15.8-11.4,24.6-11.4
		c14.7,0,26.1,12.6,25.9,25.8c0,3.2-1,5.3-4.6,5.8c-2.9,0.3-22.4,1.9-38.1,2.6c0.8,17.1,10.2,25.8,21.6,25.8
		c6.2,0,12.2-2.1,17.8-6.9L341.3,96.6z M299.8,66.4c6.6-0.2,12.5-0.3,19-0.5c2.4-0.2,3.2-0.5,3.4-3.2c0-8.2-3.5-16.5-9.8-16.5
		C306.4,46.2,300.8,53.6,299.8,66.4z"/>
	<path d="M405.5,96.6c-9.8,14.6-22.2,17.8-28.8,17.8c-21.3,0-33.1-15.8-33.1-34.2c0-12.2,5.1-22.4,11.8-29c7-7,15.8-11.4,24.6-11.4
		c14.7,0,26.1,12.6,25.9,25.8c0,3.2-1,5.3-4.6,5.8c-2.9,0.3-22.4,1.9-38.1,2.6c0.8,17.1,10.2,25.8,21.6,25.8
		c6.2,0,12.2-2.1,17.8-6.9L405.5,96.6z M364.1,66.4c6.6-0.2,12.5-0.3,19-0.5c2.4-0.2,3.2-0.5,3.4-3.2c0-8.2-3.5-16.5-9.8-16.5
		C370.6,46.2,365,53.6,364.1,66.4z"/>
</g>
<g>
	<path d="M558,55.1V27.9h5.7c2.7,0,4.9,0.3,6.5,0.8c1.7,0.5,3.2,1.4,4.6,2.7c2.8,2.6,4.2,5.9,4.2,10.1c0,4.2-1.5,7.5-4.4,10.1
		c-1.5,1.3-3,2.2-4.6,2.7c-1.5,0.5-3.6,0.8-6.4,0.8H558z M562.1,51.2h1.8c1.8,0,3.4-0.2,4.6-0.6c1.2-0.4,2.3-1.1,3.3-2
		c2-1.8,3-4.2,3-7.2c0-3-1-5.4-3-7.2c-1.8-1.7-4.4-2.5-7.9-2.5h-1.8V51.2z"/>
	<path d="M582.7,30.8c0-0.7,0.3-1.3,0.8-1.8s1.1-0.8,1.8-0.8c0.7,0,1.3,0.3,1.8,0.8c0.5,0.5,0.8,1.1,0.8,1.8s-0.3,1.3-0.8,1.8
		c-0.5,0.5-1.1,0.8-1.8,0.8s-1.3-0.3-1.8-0.8S582.7,31.6,582.7,30.8z M587.3,38v17.1h-4V38H587.3z"/>
	<path d="M608.9,54.7c0,0.8,0,1.5-0.1,2.1s-0.1,1.2-0.2,1.6c-0.3,1.3-0.8,2.4-1.7,3.3c-1.5,1.8-3.7,2.7-6.4,2.7
		c-2.3,0-4.2-0.6-5.6-1.9c-1.5-1.3-2.4-3-2.6-5.3h4c0.2,0.8,0.4,1.5,0.8,2c0.8,1.1,2,1.6,3.6,1.6c2.9,0,4.3-1.8,4.3-5.3v-2.4
		c-1.6,1.6-3.4,2.4-5.4,2.4c-2.3,0-4.2-0.8-5.7-2.5c-1.5-1.7-2.2-3.8-2.2-6.4c0-2.5,0.7-4.6,2.1-6.4c1.5-1.9,3.5-2.8,5.9-2.8
		c2.2,0,3.9,0.8,5.4,2.4V38h4V54.7z M605.1,46.6c0-1.7-0.4-3-1.3-4c-0.9-1-2.1-1.5-3.5-1.5c-1.5,0-2.7,0.6-3.6,1.7
		c-0.8,1-1.2,2.3-1.2,3.9c0,1.6,0.4,2.8,1.2,3.8c0.9,1.1,2,1.6,3.6,1.6s2.7-0.5,3.6-1.6C604.7,49.4,605.1,48.1,605.1,46.6z"/>
	<path d="M613.3,30.8c0-0.7,0.3-1.3,0.8-1.8s1.1-0.8,1.8-0.8c0.7,0,1.3,0.3,1.8,0.8c0.5,0.5,0.8,1.1,0.8,1.8s-0.3,1.3-0.8,1.8
		c-0.5,0.5-1.1,0.8-1.8,0.8s-1.3-0.3-1.8-0.8S613.3,31.6,613.3,30.8z M617.8,38v17.1h-4V38H617.8z"/>
	<path d="M626.9,41.7v13.4h-4V41.7h-1.7V38h1.7v-6.3h4V38h3.1v3.7H626.9z"/>
	<path d="M645.6,38h4v17.1h-4v-1.8c-1.6,1.5-3.4,2.3-5.3,2.3c-2.4,0-4.3-0.9-5.9-2.6c-1.5-1.7-2.3-3.9-2.3-6.5
		c0-2.6,0.8-4.7,2.3-6.4s3.5-2.6,5.8-2.6c2,0,3.8,0.8,5.4,2.5V38z M636.2,46.5c0,1.6,0.4,3,1.3,4c0.9,1,2,1.6,3.4,1.6
		c1.5,0,2.6-0.5,3.6-1.5c0.9-1,1.4-2.4,1.4-4s-0.5-2.9-1.4-4c-0.9-1-2.1-1.5-3.5-1.5c-1.4,0-2.5,0.5-3.4,1.5
		C636.7,43.6,636.2,44.9,636.2,46.5z"/>
	<path d="M658.5,25.4v29.7h-4V25.4H658.5z"/>
	<path d="M675.4,55.1V27.9h5.7c2.7,0,4.9,0.3,6.5,0.8c1.7,0.5,3.2,1.4,4.6,2.7c2.8,2.6,4.2,5.9,4.2,10.1c0,4.2-1.5,7.5-4.4,10.1
		c-1.5,1.3-3,2.2-4.6,2.7c-1.5,0.5-3.6,0.8-6.4,0.8H675.4z M679.5,51.2h1.8c1.8,0,3.4-0.2,4.6-0.6c1.2-0.4,2.3-1.1,3.3-2
		c2-1.8,3-4.2,3-7.2c0-3-1-5.4-3-7.2c-1.8-1.7-4.4-2.5-7.9-2.5h-1.8V51.2z"/>
	<path d="M716.4,47.5h-12.3c0.1,1.4,0.6,2.5,1.4,3.4c0.8,0.8,1.8,1.2,3.1,1.2c1,0,1.8-0.2,2.4-0.7c0.6-0.5,1.4-1.3,2.2-2.6l3.3,1.9
		c-0.5,0.9-1.1,1.6-1.6,2.3s-1.2,1.1-1.8,1.5s-1.4,0.7-2.1,0.9s-1.6,0.3-2.5,0.3c-2.6,0-4.6-0.8-6.2-2.5c-1.5-1.7-2.3-3.8-2.3-6.6
		c0-2.7,0.8-4.9,2.2-6.6c1.5-1.7,3.5-2.5,6-2.5c2.5,0,4.5,0.8,6,2.4c1.5,1.6,2.2,3.8,2.2,6.6L716.4,47.5z M712.3,44.2
		c-0.6-2.1-1.9-3.2-4-3.2c-0.5,0-0.9,0.1-1.4,0.2s-0.8,0.4-1.2,0.6s-0.6,0.6-0.9,1s-0.4,0.8-0.6,1.3H712.3z"/>
	<path d="M730.6,40.9l-3.3,1.7c-0.5-1-1.2-1.6-1.9-1.6c-0.4,0-0.7,0.1-0.9,0.4s-0.4,0.5-0.4,0.9c0,0.7,0.8,1.3,2.3,1.9
		c2.1,0.9,3.5,1.7,4.2,2.5s1.1,1.8,1.1,3.1c0,1.7-0.6,3-1.8,4.1c-1.2,1.1-2.6,1.6-4.3,1.6c-2.9,0-4.9-1.4-6.1-4.2l3.4-1.6
		c0.5,0.8,0.8,1.3,1.1,1.6c0.5,0.4,1.1,0.7,1.7,0.7c1.3,0,2-0.6,2-1.8c0-0.7-0.5-1.4-1.5-2c-0.4-0.2-0.8-0.4-1.2-0.6
		s-0.8-0.4-1.2-0.6c-1.1-0.6-2-1.1-2.4-1.7c-0.6-0.7-0.9-1.6-0.9-2.8c0-1.5,0.5-2.7,1.5-3.7c1-1,2.3-1.5,3.8-1.5
		C727.9,37.5,729.6,38.6,730.6,40.9z"/>
	<path d="M734.7,30.8c0-0.7,0.3-1.3,0.8-1.8s1.1-0.8,1.8-0.8c0.7,0,1.3,0.3,1.8,0.8c0.5,0.5,0.8,1.1,0.8,1.8s-0.3,1.3-0.8,1.8
		c-0.5,0.5-1.1,0.8-1.8,0.8s-1.3-0.3-1.8-0.8S734.7,31.6,734.7,30.8z M739.3,38v17.1h-4V38H739.3z"/>
	<path d="M760.8,54.7c0,0.8,0,1.5-0.1,2.1s-0.1,1.2-0.2,1.6c-0.3,1.3-0.8,2.4-1.7,3.3c-1.5,1.8-3.7,2.7-6.4,2.7
		c-2.3,0-4.2-0.6-5.6-1.9c-1.5-1.3-2.4-3-2.6-5.3h4c0.2,0.8,0.4,1.5,0.8,2c0.8,1.1,2,1.6,3.6,1.6c2.9,0,4.3-1.8,4.3-5.3v-2.4
		c-1.6,1.6-3.4,2.4-5.4,2.4c-2.3,0-4.2-0.8-5.7-2.5c-1.5-1.7-2.2-3.8-2.2-6.4c0-2.5,0.7-4.6,2.1-6.4c1.5-1.9,3.5-2.8,5.9-2.8
		c2.2,0,3.9,0.8,5.4,2.4V38h4V54.7z M757,46.6c0-1.7-0.4-3-1.3-4c-0.9-1-2.1-1.5-3.5-1.5c-1.5,0-2.7,0.6-3.6,1.7
		c-0.8,1-1.2,2.3-1.2,3.9c0,1.6,0.4,2.8,1.2,3.8c0.9,1.1,2,1.6,3.6,1.6s2.7-0.5,3.6-1.6C756.6,49.4,757,48.1,757,46.6z"/>
	<path d="M765.8,38h4v1.6c1.4-1.4,2.9-2.1,4.7-2.1c2,0,3.5,0.6,4.7,1.9c1,1.1,1.4,2.8,1.4,5.2v10.5h-4v-9.6c0-1.7-0.2-2.8-0.7-3.5
		c-0.5-0.7-1.3-1-2.5-1c-1.3,0-2.2,0.4-2.8,1.3c-0.5,0.9-0.8,2.3-0.8,4.5v8.3h-4V38z"/>
	<path d="M568.6,90l4.9,5.9l0.2-0.2c0.5-0.6,1-1.1,1.5-1.7s0.9-1.1,1.4-1.7l2.7,2.7c-0.3,0.5-0.8,1-1.3,1.6s-1.2,1.3-1.9,2.1l5,6.2
		h-5.1l-2.7-3.3c-2.5,2.6-5.1,3.8-7.8,3.8c-2.4,0-4.4-0.8-6.1-2.3c-1.6-1.5-2.5-3.5-2.5-5.7c0-2.7,1.3-5,3.9-6.8l1.8-1.2
		c0,0,0.1,0,0.1-0.1s0.1-0.1,0.2-0.2c-1.8-1.9-2.7-3.8-2.7-5.6c0-1.8,0.6-3.3,1.8-4.5c1.2-1.1,2.8-1.7,4.7-1.7
		c1.9,0,3.4,0.6,4.6,1.7s1.8,2.5,1.8,4.2c0,1.2-0.3,2.2-1,3.2C571.5,87.5,570.4,88.7,568.6,90z M565.4,92.3l-0.2,0.2
		c-1.7,1.2-2.8,2.1-3.4,2.8c-0.6,0.7-0.9,1.4-0.9,2.2c0,1.1,0.5,2.2,1.4,3.1c0.9,0.9,2,1.4,3.1,1.4c1.6,0,3.4-1,5.5-3.1L565.4,92.3z
		 M566.3,87.1l0.3-0.2c0.6-0.4,1-0.8,1.4-1.1s0.6-0.6,0.8-0.8c0.4-0.4,0.5-1,0.5-1.6c0-0.7-0.2-1.3-0.7-1.7s-1.1-0.7-1.9-0.7
		c-0.7,0-1.4,0.2-1.9,0.7c-0.5,0.4-0.8,1-0.8,1.7c0,0.8,0.3,1.6,0.9,2.4l1,1.2C566.1,86.9,566.1,87,566.3,87.1z"/>
	<path d="M595.4,105.1V77.9h5.7c2.7,0,4.9,0.3,6.5,0.8c1.7,0.5,3.2,1.4,4.6,2.7c2.8,2.6,4.2,5.9,4.2,10.1c0,4.2-1.5,7.5-4.4,10.1
		c-1.5,1.3-3,2.2-4.6,2.7c-1.5,0.5-3.6,0.8-6.4,0.8H595.4z M599.5,101.2h1.8c1.8,0,3.4-0.2,4.6-0.6c1.2-0.4,2.3-1.1,3.3-2
		c2-1.8,3-4.2,3-7.2c0-3-1-5.4-3-7.2c-1.8-1.7-4.4-2.5-7.9-2.5h-1.8V101.2z"/>
	<path d="M636.4,97.5h-12.3c0.1,1.4,0.6,2.5,1.4,3.4c0.8,0.8,1.8,1.2,3.1,1.2c1,0,1.8-0.2,2.4-0.7c0.6-0.5,1.4-1.3,2.2-2.6l3.3,1.9
		c-0.5,0.9-1.1,1.6-1.6,2.3s-1.2,1.1-1.8,1.5s-1.4,0.7-2.1,0.9s-1.6,0.3-2.5,0.3c-2.6,0-4.6-0.8-6.2-2.5c-1.5-1.7-2.3-3.8-2.3-6.6
		c0-2.7,0.8-4.9,2.2-6.6c1.5-1.7,3.5-2.5,6-2.5c2.5,0,4.5,0.8,6,2.4c1.5,1.6,2.2,3.8,2.2,6.6L636.4,97.5z M632.3,94.2
		c-0.6-2.1-1.9-3.2-4-3.2c-0.5,0-0.9,0.1-1.4,0.2s-0.8,0.4-1.2,0.6s-0.6,0.6-0.9,1s-0.4,0.8-0.6,1.3H632.3z"/>
	<path d="M642.2,88l4.4,9.6L651,88h4.4l-8.9,18.3L637.8,88H642.2z"/>
	<path d="M673.1,97.5h-12.3c0.1,1.4,0.6,2.5,1.4,3.4c0.8,0.8,1.8,1.2,3.1,1.2c1,0,1.8-0.2,2.4-0.7c0.6-0.5,1.4-1.3,2.2-2.6l3.3,1.9
		c-0.5,0.9-1.1,1.6-1.6,2.3s-1.2,1.1-1.8,1.5s-1.4,0.7-2.1,0.9s-1.6,0.3-2.5,0.3c-2.6,0-4.6-0.8-6.2-2.5c-1.5-1.7-2.3-3.8-2.3-6.6
		c0-2.7,0.8-4.9,2.2-6.6c1.5-1.7,3.5-2.5,6-2.5c2.5,0,4.5,0.8,6,2.4c1.5,1.6,2.2,3.8,2.2,6.6L673.1,97.5z M669.1,94.2
		c-0.6-2.1-1.9-3.2-4-3.2c-0.5,0-0.9,0.1-1.4,0.2s-0.8,0.4-1.2,0.6s-0.6,0.6-0.9,1s-0.4,0.8-0.6,1.3H669.1z"/>
	<path d="M681.4,75.4v29.7h-4V75.4H681.4z"/>
	<path d="M685.6,96.4c0-2.5,0.9-4.6,2.7-6.3s3.9-2.6,6.5-2.6c2.6,0,4.7,0.9,6.5,2.6c1.8,1.7,2.6,3.9,2.6,6.4c0,2.6-0.9,4.7-2.7,6.5
		c-1.8,1.7-4,2.6-6.6,2.6c-2.6,0-4.7-0.9-6.5-2.6C686.5,101.2,685.6,99,685.6,96.4z M689.7,96.5c0,1.7,0.5,3.1,1.4,4.1
		c0.9,1,2.2,1.5,3.7,1.5c1.5,0,2.8-0.5,3.7-1.5s1.4-2.3,1.4-4s-0.5-3-1.4-4c-0.9-1-2.2-1.5-3.7-1.5c-1.5,0-2.7,0.5-3.7,1.5
		S689.7,94.9,689.7,96.5z"/>
	<path d="M712,114.4h-4V88h4v1.9c1.6-1.6,3.3-2.3,5.3-2.3c2.4,0,4.3,0.9,5.8,2.6c1.5,1.7,2.3,3.9,2.3,6.5c0,2.6-0.8,4.7-2.3,6.4
		c-1.5,1.7-3.4,2.5-5.8,2.5c-2,0-3.8-0.8-5.4-2.4V114.4z M721.4,96.6c0-1.6-0.4-3-1.3-4c-0.9-1-2-1.6-3.4-1.6
		c-1.5,0-2.6,0.5-3.5,1.5s-1.4,2.3-1.4,4c0,1.6,0.5,2.9,1.4,4c0.9,1,2.1,1.5,3.5,1.5c1.4,0,2.5-0.5,3.4-1.5
		C721,99.5,721.4,98.2,721.4,96.6z"/>
	<path d="M729.6,88h4v1.6c0.8-0.8,1.4-1.3,2-1.6c0.6-0.3,1.3-0.4,2.2-0.4c1.9,0,3.5,0.8,4.6,2.5c1.2-1.7,2.9-2.5,5-2.5
		c3.9,0,5.8,2.3,5.8,7v10.6h-4v-9.5c0-1.6-0.2-2.8-0.6-3.5c-0.4-0.7-1.1-1-2-1c-1.1,0-1.9,0.4-2.4,1.2s-0.7,2.1-0.7,4v8.8h-4v-9.5
		c0-3-0.9-4.6-2.6-4.6c-1.1,0-1.9,0.4-2.4,1.2s-0.8,2.1-0.8,3.9v8.8h-4V88z"/>
	<path d="M773.7,97.5h-12.3c0.1,1.4,0.6,2.5,1.4,3.4c0.8,0.8,1.8,1.2,3.1,1.2c1,0,1.8-0.2,2.4-0.7c0.6-0.5,1.4-1.3,2.2-2.6l3.3,1.9
		c-0.5,0.9-1.1,1.6-1.6,2.3s-1.2,1.1-1.8,1.5s-1.4,0.7-2.1,0.9s-1.6,0.3-2.5,0.3c-2.6,0-4.6-0.8-6.2-2.5c-1.5-1.7-2.3-3.8-2.3-6.6
		c0-2.7,0.8-4.9,2.2-6.6c1.5-1.7,3.5-2.5,6-2.5c2.5,0,4.5,0.8,6,2.4c1.5,1.6,2.2,3.8,2.2,6.6L773.7,97.5z M769.7,94.2
		c-0.6-2.1-1.9-3.2-4-3.2c-0.5,0-0.9,0.1-1.4,0.2s-0.8,0.4-1.2,0.6s-0.6,0.6-0.9,1s-0.4,0.8-0.6,1.3H769.7z"/>
	<path d="M778,88h4v1.6c1.4-1.4,2.9-2.1,4.7-2.1c2,0,3.5,0.6,4.7,1.9c1,1.1,1.4,2.8,1.4,5.2v10.5h-4v-9.6c0-1.7-0.2-2.8-0.7-3.5
		c-0.5-0.7-1.3-1-2.5-1c-1.3,0-2.2,0.4-2.8,1.3c-0.5,0.9-0.8,2.3-0.8,4.5v8.3h-4V88z"/>
	<path d="M801.9,91.7v13.4h-4V91.7h-1.7V88h1.7v-6.3h4V88h3.1v3.7H801.9z"/>
</g>
<rect x="470.9" y="-1.9" transform="matrix(0.7071 0.7071 -0.7071 0.7071 184.3947 -314.9944)" width="3" height="134.1"/>
</svg>
