<?xml version="1.0" encoding="utf-8"?>
<!-- Generator: Adobe Illustrator 15.0.2, SVG Export Plug-In . SVG Version: 6.00 Build 0)  -->
<!DOCTYPE svg PUBLIC "-//W3C//DTD SVG 1.1//EN" "http://www.w3.org/Graphics/SVG/1.1/DTD/svg11.dtd">
<svg version="1.1" id="Layer_1" xmlns="http://www.w3.org/2000/svg" xmlns:xlink="http://www.w3.org/1999/xlink" x="0px" y="0px"
	 width="406px" height="151.5px" viewBox="0 0 406 151.5" style="enable-background:new 0 0 406 151.5;" xml:space="preserve">
<g>
	<path d="M49.4,112.5v-5.3c6.9-0.8,7.7-2.1,7.7-11.5V60.8c0-9.8-0.5-11.2-8.3-11.2h-17V96c0,9,1.8,10.2,9.4,11.2v5.3H1.8v-5.3
		c8.5-0.8,9.8-2.2,9.8-11.2V49.6H0.6L0,47.5l4.8-5.8h6.7v-3.5c0-5.6,1.4-10.2,3.8-15c2.6-5.1,6.7-9.6,12.5-13.9
		c7.5-5.8,16.3-9,23.7-9.3C61,0.3,66.9,4,70.1,7.5c2.4,3,2.7,6.2,1.4,8.8c-0.8,1.9-2.7,4.2-5,5.3c-2.9,1.8-5.3,1.4-6.7-0.5
		c-2.6-3.4-8.2-12.8-17.8-12.8c-4.3,0-7.4,3.7-8.6,9.4c-1.1,4.3-1.6,12-1.6,19v5h16c7.2,0,20.8-0.2,29.8-1.9v55.8
		c0,9.4,0.8,10.6,9.6,11.5v5.3H49.4z"/>
	<path d="M164.4,43.4c-1,2.7-4,8-6.9,9.8l-9.1-0.6c2.6,3,4.3,6.7,4.3,12.2c0,16.6-14.9,25-30.6,25c-2.9,0-5.4-0.5-7.8-0.8
		c-1.3,1.3-2.2,2.7-2.2,4.5c0,2.7,2.6,6.2,10.2,6.1c5.1,0,9.6-0.2,14.7-0.2c9.9,0,24.6,2.7,24.6,19.5c0,18.2-21.4,32.8-42.7,32.8
		C98.3,151.5,89,141,89,132c0-3.5,1.8-6.1,5-8.8c3.8-3,8-5.3,12.2-7.8c-6.7-2.4-9.8-5.4-12-8.8c-1.8-2.6-2.6-6.4-2.4-8.6
		c8.3-3.4,13.3-7.7,16.3-10.6C98.4,84.2,92.4,76,92.4,66.1c0-17.9,16.6-26.2,31-26.2c6.6,0,11.2,1.3,17.1,4.3
		c8.3-0.3,16.8-1.3,23.2-1.9L164.4,43.4z M110,119.2c-2.2,2.4-3.7,4.8-3.7,8.2c0,7.7,8,15.4,20.6,15.4c12.2,0,19.4-6.6,19.4-15
		c0-5.8-4-9.1-9-10.4c-4.3-1.1-7.8-1.4-13.8-1.4C115.7,115.8,112.4,116.6,110,119.2z M112.8,63.5c0,11.2,3.7,20.2,11,20.2
		c6.2,0,9.6-6.4,9.6-18.2c0-10.4-3.4-19.7-11-19.7C117.5,45.8,112.8,51.8,112.8,63.5z"/>
	<path d="M203.1,112.6c-2.9,1.1-5.4,1.8-6.6,1.8c-12.3,0-19.5-5.8-19.5-20.2V49.4H167l-0.8-1.9l4.5-5.8h6.4V30.1l18.1-12.5l2.2,1
		v23.2H213c1.9,1.8,1.6,6.4-1,7.7h-14.7V89c0,12.5,5.8,13.9,9.1,13.9c2.7,0,5.3-0.6,8-1.9l1.6,5.6L203.1,112.6z"/>
	<path d="M248.9,56.6c5.8-9.9,12-16.8,17.9-16.8c6.4,0,10.7,4.5,10.7,9.9c0,5.8-3.5,10.2-7.8,11.8c-2.2,0.8-3.8,0.3-5-0.6
		c-2.7-2.2-4.6-3.4-7.4-3.4c-3,0-6.2,2.1-9,8.3v29.8c0,9.9,1,10.6,13.3,11.7v5.1h-43.8v-5.1c8.6-1,10.2-1.8,10.2-11.7V60.8
		c0-8.2-1.3-8.8-8.6-10.6v-4.5c9.6-1.3,19-3,29-6.1v17H248.9z"/>
	<path d="M341.3,96.6c-9.8,14.6-22.2,17.8-28.8,17.8c-21.3,0-33.1-15.8-33.1-34.2c0-12.2,5.1-22.4,11.8-29c7-7,15.8-11.4,24.6-11.4
		c14.7,0,26.1,12.6,25.9,25.8c0,3.2-1,5.3-4.6,5.8c-2.9,0.3-22.4,1.9-38.1,2.6c0.8,17.1,10.2,25.8,21.6,25.8
		c6.2,0,12.2-2.1,17.8-6.9L341.3,96.6z M299.8,66.4c6.6-0.2,12.5-0.3,19-0.5c2.4-0.2,3.2-0.5,3.4-3.2c0-8.2-3.5-16.5-9.8-16.5
		C306.4,46.2,300.8,53.6,299.8,66.4z"/>
	<path d="M405.5,96.6c-9.8,14.6-22.2,17.8-28.8,17.8c-21.3,0-33.1-15.8-33.1-34.2c0-12.2,5.1-22.4,11.8-29c7-7,15.8-11.4,24.6-11.4
		c14.7,0,26.1,12.6,25.9,25.8c0,3.2-1,5.3-4.6,5.8c-2.9,0.3-22.4,1.9-38.1,2.6c0.8,17.1,10.2,25.8,21.6,25.8
		c6.2,0,12.2-2.1,17.8-6.9L405.5,96.6z M364.1,66.4c6.6-0.2,12.5-0.3,19-0.5c2.4-0.2,3.2-0.5,3.4-3.2c0-8.2-3.5-16.5-9.8-16.5
		C370.6,46.2,365,53.6,364.1,66.4z"/>
</g>
</svg>
